/* XPM */
static char *a49f667819fa4fb681301387c94930ff3rlv6adQ2QPkcIql[] = {
/* columns rows colors chars-per-pixel */
"100 75 256 2 ",
"   c #180701",
".  c #2A0600",
"X  c #360A00",
"o  c #391701",
"O  c #2D1C05",
"+  c #392703",
"@  c #332910",
"#  c #3D3B2D",
"$  c #471702",
"%  c #4D1700",
"&  c #482802",
"*  c #5C2B00",
"=  c #552701",
"-  c #483407",
";  c #5C3300",
":  c #583704",
">  c #4A3716",
",  c #573918",
"<  c #502A17",
"1  c #652C00",
"2  c #633B01",
"3  c #683905",
"4  c #753B01",
"5  c #643816",
"6  c #783E11",
"7  c #523626",
"8  c #663A26",
"9  c #584519",
"0  c #59480A",
"q  c #6B4401",
"w  c #684607",
"e  c #734302",
"r  c #734A02",
"t  c #7B4C02",
"y  c #78480A",
"u  c #795507",
"i  c #684918",
"p  c #774A15",
"a  c #6B5815",
"s  c #7A5617",
"d  c #68560A",
"f  c #776313",
"g  c #5A4827",
"h  c #544A30",
"j  c #664A27",
"k  c #764B25",
"l  c #675428",
"z  c #775928",
"x  c #695837",
"c  c #775B35",
"v  c #6F4C32",
"b  c #78662A",
"n  c #7A6638",
"m  c #736B2F",
"M  c #585349",
"N  c #695A4A",
"B  c #786745",
"V  c #746B52",
"C  c #7A7366",
"Z  c #864905",
"A  c #875706",
"S  c #945B07",
"D  c #844D15",
"F  c #825414",
"G  c #885A17",
"H  c #955C17",
"J  c #896506",
"K  c #976707",
"L  c #9A7704",
"P  c #8C641D",
"I  c #886616",
"U  c #976818",
"Y  c #9A7518",
"T  c #8B710E",
"R  c #A67807",
"E  c #A46919",
"W  c #A77817",
"Q  c #AB7211",
"!  c #865B25",
"~  c #8C5B2C",
"^  c #886627",
"/  c #966827",
"(  c #997727",
")  c #886837",
"_  c #976935",
"`  c #887538",
"'  c #987838",
"]  c #87732A",
"[  c #A46B27",
"{  c #A87828",
"}  c #B47A2A",
"|  c #A87936",
" . c #B47B36",
".. c #AB6C35",
"X. c #A65F27",
"o. c #866A46",
"O. c #897646",
"+. c #977946",
"@. c #877755",
"#. c #947854",
"$. c #A77B45",
"%. c #AD7D4C",
"&. c #847A66",
"*. c #805E42",
"=. c #C47E38",
"-. c #998314",
";. c #A98518",
":. c #B6841A",
">. c #B38E0F",
",. c #998438",
"<. c #99862B",
"1. c #A98528",
"2. c #B68728",
"3. c #BA9529",
"4. c #A98538",
"5. c #B68837",
"6. c #AC9539",
"7. c #B99639",
"8. c #A99428",
"9. c #BBA738",
"0. c #B8A331",
"q. c #C79917",
"w. c #D0AE13",
"e. c #C3892B",
"r. c #C79929",
"t. c #C38B38",
"y. c #C79938",
"u. c #D39B38",
"i. c #D29E2E",
"p. c #C9A428",
"a. c #D4AA2A",
"s. c #C9A539",
"d. c #D4A739",
"f. c #D9B63C",
"g. c #D1B52C",
"h. c #E6B832",
"j. c #E1B91C",
"k. c #DAC433",
"l. c #ECCB34",
"z. c #E0C41A",
"x. c #978747",
"c. c #9A8758",
"v. c #91874C",
"b. c #A68848",
"n. c #B78946",
"m. c #AA9448",
"M. c #B99747",
"N. c #A68A58",
"B. c #B78956",
"V. c #A89558",
"C. c #B89956",
"Z. c #BBA448",
"A. c #B9A558",
"S. c #B3AB4E",
"D. c #988867",
"F. c #958F70",
"G. c #A99767",
"H. c #B69A67",
"J. c #A79675",
"K. c #B59A74",
"L. c #AC8D65",
"P. c #B9A667",
"I. c #B8A775",
"U. c #B3AD6F",
"Y. c #C69946",
"T. c #D39C49",
"R. c #C59856",
"E. c #C9904C",
"W. c #C9A647",
"Q. c #D7A947",
"!. c #CBB646",
"~. c #D9B748",
"^. c #C7A857",
"/. c #D5AA57",
"(. c #CAB359",
"). c #D8B656",
"_. c #E6B849",
"`. c #E6BA57",
"'. c #E8B04E",
"]. c #C79968",
"[. c #C7A967",
"{. c #D4A866",
"}. c #C9B568",
"|. c #D8B766",
" X c #C7AA77",
".X c #C9B677",
"XX c #D4B977",
"oX c #D6AB76",
"OX c #E6B967",
"+X c #E8B771",
"@X c #DBC658",
"#X c #D7C74E",
"$X c #E6C848",
"%X c #E7C659",
"&X c #F6C958",
"*X c #E7D659",
"=X c #F5D75A",
"-X c #F3D148",
";X c #FAE954",
":X c #D9C567",
">X c #DAC677",
",X c #D2CA74",
"<X c #E7C768",
"1X c #F5CA67",
"2X c #E9D569",
"3X c #F9D768",
"4X c #E7C876",
"5X c #EAD678",
"6X c #F8D977",
"7X c #F5CC75",
"8X c #FAE768",
"9X c #FBE679",
"0X c #F9F46D",
"qX c #B8AD8A",
"wX c #A59C8C",
"eX c #C7AD86",
"rX c #C9B887",
"tX c #D7BA85",
"yX c #CFB892",
"uX c #DABC97",
"iX c #D9C787",
"pX c #D9C997",
"aX c #D1CB8F",
"sX c #E4CA88",
"dX c #E9D688",
"fX c #F7DA87",
"gX c #E6CA95",
"hX c #E8D797",
"jX c #F5DB97",
"kX c #F5CA86",
"lX c #FBE887",
"zX c #FDF689",
"xX c #FBE998",
"cX c #FEF697",
"vX c #EBE492",
"bX c #D7CEA9",
"nX c #E8D8A5",
"mX c #F6DAA7",
"MX c #EADBB7",
"NX c #F0D8AF",
"BX c #FAE8A8",
"VX c #FFFCAC",
"CX c #FEF6A5",
"ZX c #FAE9B6",
"AX c #FFFCB5",
"SX c #FFFEBD",
"DX c #FEF4B9",
"FX c #E9E4AC",
"GX c #DEE28D",
"HX c #FFFEC3",
"JX c #FFFECB",
"KX c #FEF2C5",
"LX c #FDFBD7",
"PX c #F4EAC9",
"IX c #FAFEE8",
"UX c #DDD9C6",
/* pixels */
"R i.T.2.-.=X0X;X*X*X;X0.>.r.{ y.zX$Xg.d.2.'.t.OX|.xXlX!.*X*Xz.w.w.>.-.q.8.2XcX4XiXhXgXnXnXeXo.rXpXnXaXaXU.I.,X}.(.@X;.s.u.R Z 4 J i.5.2.W.5.3.J J 2.T.{ /.s.&X-Xp.>.w.l.j.w.l.-Xf.A l.h.l.a.;.1.{ 5.5.y.",
"q.r.W K Y k.-X0X;X#X*Xk.g.p.A U 9X8X*X~.i.`.Q.7XQ.|.@X!.*Xk.z.w.k.;X>.9.0X:XM.vXgXgXNXZXgXrXK.tXaXZXnXpX.XiXgXA.M.!.2.R } Q Z Z 8.8.5.7.6X7X~.;.A K Y.[ 7.%XzXl.q.q.l.j.z.z.;X-Xh.>.w.-Xl.a.;.1.U 1 Z S ",
"_.'.} I L L -.8X#X8X2X8.p.&Xy.1.@X0X=Xa.r.u.Q.`.).(.@X#X*Xk.k.z.k.k.k.*X9X@XdXjXsXgXmXNXgXeXtXeX XsXgXtXtXtXkX/.<.7._.3.d.u.Q } !.<.<.<.>X>X7.;.W t } E } Q.-Xa.q.j.l.j.w.;Xl.>.q.S >.h.a.~.K 2.} % E 2.",
"e.OX .A J d T 8X9X@X@X2X*X`.Y.7.!.0X0Xg.r.a._.%X~.@X2X#X;X0X;X;X;X;X;X#X2XZ.,X>XsXmXmXNXgX XuX].oXB.].].+X].XXT.Y J %XQ.Q.u.Q } f f m v.P.,.T u W.} E.[ u._.a.h.q.j.j.l.j.;Xk.>.h.w.a.-Xh._.;.s.E 1 e.Q.",
"S u.[ D / q u @XZ.W.5X*Xp.%X/.K 3.0X9X_.f.&X3X1X!.s.#X#X;X0X0X;X0X0X0X*X9X<.m.,XtXBXmXkXuX%.B.%.R.......].E.].E.1.A %Xd.2.3.W U - d m m ,.m ,.T Y [ E.Z S T.h.w.l.l.a.-X;X-Xk.-.q.-Xq.&Xf.L ~.:.S S Q e.",
"S } p D b.q u (.}.m.2XzX&X~.<XY.-.#X0X3X$X8X8X$X#X8.9.9.;X*X*X;X0X0X*X,XzX6.S.,XsXZXmXtXoX%.%.....X...X.=.].T. .K W 1X~.3.u.2.T 0 m d h m a m.I [ A E.X.4 u.=Xh.;Xl.l.;XzX>.w.>.q.-Xa.h.i.J $X;.e.u.K S ",
"S K = 3 | F 4.}.4.|.lX1Xd.~.y.q -.!.9X0X$XzX3X#X2X-.9.#X*X#Xg.k.#XzX#X8.zXS.,.U.sXsXuXkXtXtX].%.X...E.=.=.+XE.} A d._.u.e.3.W I d d m m m f ( r { t [ =.1 S h.l.l.j.-X3X8X>.>.z.j.j._.h.} K 3.L Q.'.E S ",
"E [ 3 = s u 6.W.}.fX5Xs.p.f.s.Y T <.<X9Xf.zX8X*X*X<.#X!.@X@X!.9.#X0.8.6.@Xm.A.}.H.+.].tX].kX Xn.E.E.oX+X].kXE.=.K 1Xr.3.:.K A 1.-.f ] f d m 7.5.}  .%.X.4 Z e.h.z.z.;X9X9.0.L -Xj.l.h.&Xi.R $X:.u.T.T.y.",
"K U y 3 y ( /.Z.4X7X9XJ 3.*XW r u 4.lX9X6X2X@XZ.Z.Z.(.Z.5XzX9X6X!.8.<.5XZ.m..X.X}.P.c.P.XX XC.V.{.[.|.{.{.|.T.} K &Xd.`.e.S 4 S 7.-.( T u R.M.5.=.Z D ..4 ( g.k.w.l.;Xl.-.~.q.l.l.z.l.&Xi.u >.~.2.{ Y Y.",
"K U y s / M.).8.cXCX9X-.>.f.).{ ^.>XcXxXcX2X:XS.lXxXlX}.vXVXcXzX2X0.-.5X[.' XX.X.XG.V..XpXXX}.>XXX^.A.m.C.R.6.Y W 1X&Xi.`.R Q e.r.r.;.M.Y.y.u.u.=.Z Z Z = ;.;.k.z.;Xk.0.A 2X=Xg.j.l.h.R >.r.$X3.Y Y ( 5.",
"Q K t G { Z.%XW.<X6XW.;.;.s.<Xu | ^.xXxXvX,XdXCX>XSXSXiXdXVXCXzXcX(.<.CXdXm.iX XI.H.G.P.U.P.V.A.S.,.,.m.C.[.( u W Q.Q A '.d.u.Q.a.d.2.2.W.} } u.} X.D H 3 3.9.l.l.;Xg.g.J 1.3.a.a.l.l.Q R -.!.s.1.6.Y.Y.",
"K I F / { 7.~.~.1.).8.3.0.y.M.* s 4.lXVXvX,XAXSXiXKXjXV.m.dXzXGXcX(.m.VXAXtXnXiXrXrXI.c.x.x.V.` <.m x.C.C.^.I A W d.A K Q u.'.6X_.d.`.} 5.t.S } S =.1 H G W #Xl.;Xk.-.s.W.5.u 2.h.h.q.R L u 7.<./.^./.5.",
"K U H | 5.9.~.!.1.2XW.W.3.{ y ; F f |.cXvXvXHXaXnXNXH.+..XCXCXcXfXm.x.dXBXnXKXKXpXtX XN.O.b.b.' ` x.A.C.' ' A 5.Q.i.Q :.R Q '.6X&X).fXM.| E.K Z X.u.1 X.U ;.l.;X;X>.;.6.I P $ 3 E h.h.>.3 = (.b.(.W.7.Y ",
"Y U F _ 5.Q.=X%XW.6X7.Y.6.P o 5 P d M.xXFXBXHXU.U.I.L.b.dXxXCXzXCXP.m.U.pXaXJXJXZXI.N.L.b.+.$.+.' +.x.b.) | y T.u.Q R d.S q.i.`.1XfX7X{.| | 5.4 =.=.Z X.Y d.$X0Xl.-.3X7Xq y % % X.T.r.i.u T iX' W.W.W.3.",
"E G e s W W.3X=X%X6X5.).5.F X 5 ' Y (.cXVXGXHXaXbXNXgX].>X}.cXcXvX.Xv.GXFXc.MXMXPXN.o.N.+.^ _ / z 6 p ! D ..4 E.E Q Q $XA :.} &X4XcXXXsXH.( Y.[ =.X.4 Z L *X-X-Xp.q s.4X/ p $ $ Z '.u.f.J ( G. XOX%X).`.",
"I P F F G 1.!.~.%X1X1.4X^ = $ 8 G Y m.GXSXGXHXHXI.tXgXC.,XS.zXcX6.S.m VXAXm aXK.eXv = 5 5 3 4 * 1 * 3 6 1 6 1 T.t.e.e.:.:.1.} 7.^.>X.XgX[._ H =.X.=.4 E ;.;X;Xw.0.3.Y.W._ 2 . % % E.u.3.u Z.x..X4X%X%X&X",
"/ ! p s q 5.3.s.<X6XJ 4XH % $ 1 ~ }.f ,XCXSXHXBX[.^.{.6.( <XCXcX^.6.U ^.XXm.BXnXK.$ o = = % 1 % % % = = $ % Z T.}  . .{ U Z * t W.Z.[.B.kXR.t  .! / 4 T.R 8Xg.f.3X3.J |.I p X X = I 2.3.T 7.` XX<X@X8.*X",
"_ ! y G r 4.5./.~.<XA /.| 1 % k $.r ,..XaXGXvXBXVX<XY.J u W.lX6X).W Y 8.|.sXBXKXuXB v < 1 = * % $ % $ % % 4 [ [ E  . .[ { $./ G M.Y.R.oXkXY.{ / G e U d.p.w.>.p.3X7.Y |.' a X X % I 6.1.-.9.I XXOX!.3.3X",
"( ! q F r | 7.7X`.3.Y OX_ 3 5 6 G u >XA.hX,X}.vXxX<X`.2.J 7.2X9Xt.3.W.W.7.A.}.HXKXyX X%.L.].E.%.%.%.! ~ { ..T.[ t E ..S H ..| | ( M.( {.|./.+XU U t W.&Xf.-.>.a._.J : ( ( b < $ $ U M.;.3.~.f |.s.3.g.=X",
"/ s 2 F t 1.Y.zX3XY 1.OXs = 5 * y | M.M.vXS.:X<XcX3X1XQ.3.).!.8.~.%Xs.%X@X:X}.dXiXH.L.#.%.%.%.$.].E.%.n.%.X.[ H e S [ U G U P ..4.W.Y y.5.Y./.A :.:._.3X:.R p.=X%Xu o Y ' z . . $ P y.Y s.%Xu }.7.s.s.s.",
"/ s 2 s u { M.cXlX`.W.)./ * % 3 | e : M.(.<.2X#X%X~._.d.Q.3X1X!.~.#X3.#X2X9X9XGX.Xb.+.) +._ ~ ~ %.D _ .._ U S  .4 4 S H [ t.5. .u u u 8.y.Q.Y.2.R q.-X$XK :.a.&XQ.I w A.C.z . . o G 5.Q r.`.u R./.E.{ U ",
"| G 2 u u 4.2.lXcX6X)./.P 2 2 i y 3 r 5.9.7.@X2X3X%X&X~.a.~.~.~.d.f.#X0.0.2X2XcX}.` _ z ~ p D ~ k = 3 1 4 [ A [ E E [ S Z E { / P q J d.).2.A K L h.=Xr.Q y.f.~.8.A : b.[.) . X $ F } U 3.d.U 4.OXE.U / ",
"' / 2 u u 4.1.6XzX@X1.4.q : w 3 1 H 5.Y.).#X~.=X$Xg.f._.&X`.d._.1X$Xf.3.s.*X9X5X>X] z i 5 5 p 5 D 6 p * e ..E U 4 S } E Z E T./.G ; U ~.W.W R K q.l.-X;.W y.s.s.W.I & & C.c X . % y [ W :.r.2.} |. . .E ",
"( / 2 u G 4.1.<X6X9XJ J A d w _ | Z { 1X3X~.*Xf.$Xs._.&X_.3.:.'.Q._.3.p.#X!.zXZ.m.- & O & j o.v 5 6 p 6 F / [ H E E T.`.T.t.t.E.P q 5.W.;.W d.A h.&Xi.K J 2.W Y.W.P : . b.c 8 $ % 3 X.E R :.Y.{ 1XT.Y.3 ",
"4.G r r u 4.4.).<X6X(.q q d [.{.~ D Y.Y.3X$X1X~.#X%X%X%X~.Q.K d.Q Q.u.Q.&XzX6X}.a - O 9 l B n o.k : p 4 D [ D E 1 Z 5.'.fX`.} E.n.G C.( 2.r.>.r.$Xi.;.y.2.t A | /.4.; . d ' $ $ % 4 G [ K e.3.G E { Z U ",
"( F q q u 4.( 7.1.5XW.-.^.' XXBX^ / E.Y.<X3XzX8X2XlX5X7X/.y.Q _.Q e.} 1X`.W.|.(.s 9 l B V x h 9 p p / e p n. .[ Z H E y.OX7Xt.} n.| B.H y._.R -Xh.Q W u.s.$ X e +XR.P ; M.i 7 7 % % 3 H J r.7.( t t 3 n.",
"4.P u u P C.4.M.f 6X|.S.:X^.4X Xp ..Y.Y.`.6XzXzXlXVXxXvX(.1.{ Q.T.T.t.OXY.( |.] ` ) V v m 9 h l ) G _ F F H y G } 5.E.{ /././.U Y.{.| / Y._.a.&X} 2.T.i.d.e * 1 Y.4.u u |.= < $ % $ % F 1.~.1.0 u q & e ",
"4.s q w s M.' M.J 6.).:XZ.dXAX4.w +.M./.<XcXxXdXdXHXAXZXsX^.5.).E.t.2.t.7.4.oX' I.eXK.#.B l m z ' ! _ ' ../ H (  .OXR.OX5.W.M.1.7.R.G _ Y :.h.>.Q '.1X'.r.2.5.D E y.W ~.<XG 8 8 = $ = | %XcX5X( u Y 4.|.",
"n.P u s ^ ].| m.A.I :X5XZ.xXAXP.b b.$.^.4XCXdXhXqXFXPXLXZXvXM.OX7XW.).:X4X,.^ ' ZXPXeX#.n z z s s ! ! y D _ / P | C.kX7X4X( M.6.7.M.U W Q i.a.Q :.d.6X6XW E t.W e u.Q.1X7.U o $ . $ * ) S.cXcX2X5X@X!.!.",
",.u q w s b.z ( :XM.cXfX:XCXxX,X XXXm.^.4XAXBXDXbXUXIXIXLXHXC./.(.6.:XcXCXA.b H.PXPXK.$.z ! P ^ | _ G D F / _ [ / | M.xXsX(.6.Z.W.^.W.W y._.R >.r.>.&X'.y.K W.E Q '.3X_.3.{ o X X = 5 ' m.zXCXGX2X9X0X#X",
"4.G y s ] b./ m.m.M.CX4XxXAXxX.XBXHXsX[.sXSXJXLXUXIXIXIXLXJX[.(.(.(.5XcXGX.Xx.+.NXZXeX].].4.{ U G y 4 s F e s / s r ( C.xX>Xm.4.5.s.Q.>.d.u.Z K :.q.h.u.T.2.'.Q h.'._.i.3.7.= . . . = x.S.zXvXGXS.5XzXS.",
"4.u w p ^ B.4.XX<.Y ,XdXAXCXhXV.NXJXhXH.XXBXZXMXLXIXIXIXLXJXjXfX9X,X,XCXvXBXBX.XLXPXuXH.oX.. ./ / | _ G p 4 y : = = 2 ] XXdX<.I { r.r.d.~.W e.Z R a.d.Q.y.Q :.d.&X'.r.a.3.Y.3 8 o & z ,X,XlXcXCX0.zXcX!.",
"| u i p _ ' ( 7.d u 4XXXDXJXFXG.bXMXeXiXiXaXSXHXLXUXaXbXJXSX4X<XlX:X5XvXCXHXHXbXPXPXyXNXPXeX%.X.~ D X.%.q : : v 8 7 8 =  X5.M.3.e.i.e.'.} [ E.A 2 Q.3.).Q.2.y.`._.d.q.p.~.^.$ $ X $ d 6.*XcXlXzX2X~.#X~.",
"<.P y 3 _ n.Y Y q u XXBXZXLXJXPXMXUXnXJXSXGXnXAXDXaXbXFXSXxXM.:X(.#XfXiXAXJXJXJXIXIXMXLXLXuXeX].eX%.~ X.r q , , X < 8 = b.4X/.3.i.:.u.e.....R.2 = 7.8.y.~.1.OX1Xd.p.q.p.y./.; o o , ( -.@XcX6XzX3X_.).2.",
"( G y 5 _ n.5.2.L 1.^.mXZXKXZXpXeXPXZXZXBXHXFXFXLXFXFXaXiXAX).W.Z.5XxXCXvXHXwXbXIXPXbXLXPXwX].B.oXoXE.! ^ _ ) = $ $ 8 8 | fXW.r.R q.`.t.R.| | * ; 7.7.:.).Q <X`.y.a.q.a.K ( q = o X f !.#X#XcXlX).y.y.e ",
"4.s i p _ | 5.).3.7.+XZXeXuXKXyXLXLXJXJXpXN.n aXU.h n v.hXCX4X@X).2XVX,XFXFXbXFXUXPXbXIXPX%.yXeXoX{.$.= 3 s ) j 8 7 < ~ _ <X3.>.R u.2.Z E.F G e ; 5.7.{ Y.K /.5.y.~.f.8XQ.| u q = = 6.s.(.S.6.lX7XY.t.e ",
"4.I p p ~ ..[ Y./.5.4XsX) K.JXuXuXpXKXJX.X- - I.bXm x m P.6.@X~.@X5XlXGXV.pXU.J.uXUXLXLXMXMXLXbXgXoX%.v z k ) _ k v 5 5 3 5.d.L p.r.K 7.kX| / 2 $ / { 5.5.Y t.1.{ r.R d.Q.M.U u y ].Y.7.1.I ( /.T.{ [ U ",
"4.U p p _ %.{ W ~.).n.5 j L.nXeXD.G.gXZX Xz ) eXD.V F.G.}.<.9X%X:X:XAXxXvXhXnXwX#.wXMXIXKXLXLXMX XC.%.*.*.o.~ p k ~ 8 < * A f.q._.J Z 5.E.H $.q o G [ T.1.| | E.5.Q.J J U /.W.5.].B.OX7.= q r E.W S S K ",
"| P p 6 _ E.2.1.W OX| & i L.L.gXgXH.tXDXjXz O.J.V - m v.4.f #X3XlXCXcXAX.XG.K.qX&.o.MXPXMXLXPXaXrXB.o.B v *.+.O.v ~ , = ; K ~.$Xr.J 3.| n./  ./ = Z n.{. .4.E /.5.W.W J t Y.T.{ R.{.t.U * . * { Q R r.q.",
"5.G y p _ ..{ T.{ { G y = K.#.^ n O..XtXP.z H.v.B @ l O.` ^.@X!.:XvXxXBX.Xz O.eXK.K.PXqXF.LXJXF.K.9 , #.j o < #.N #., X o M.`.s.1.K 5.o { / P b.3 e n.{...[ G OX7XQ.;.W t T.).1.[ t Y.E X = ..H e.e.'.Q ",
"1.U D D _ ~ E.2.t.{ D _ o.B.c z O.tXV.` [.gXKXK.o.7 g b ' A.<X0.S.vX,XVXJX X#.o.v L.yX&.D.bXFXqXD.g > l x > . o *.o.O + : |.4X1.7.).1.2 W.E.e  .3 4 %.^.U n.H ).Y.OXQ.Y.e U :.K 4 3 5.5.% = 4 ..T.=.Z 3 ",
"1.I p s ~ / 5.} Q.{ F ; 5 = i N.) N.b ^ C. XJXLXeXO B c.V.,.<X(.,XGXiXBXDXnXo.o.D.eXL.J.D.FXaXbXB @ O > g >     7 v + . r (.Z.I M.<X{ A /.M.U G * 3 / R.n.U J 5.5././.t.y A :.J A % E E.D 6 H E.X./ F H ",
"1.A p k _ / 5.[ y.5.e 3 i j : ) i z i ' XXtXgXeXK.> @.D.I.` M.^.,..XV.FXZXgXK.#.o.D.&.v @.U.rX@.v > - - - O     7 7 c : Z.dX^.( ( /.5.J 7.Y.t.U G G P Y./.A T ;.W./.OXY.H G 2.L Z 1 [ E 1 6 G 4 A U K W ",
"4.I G ! $./ 4.} T./.3 3 k $.5 i n b i ' oX[.C._ - g j g n ` ` d 0 V.V.tXuXyXK.@., > c #.rXo.v.j j > w - & O     7 < c f }.|.C._ y 7.).U W OX).{ U U G 5.4.J u ;.Q.2.T.[ F Z 2.K t *  .| y 1 D e W :.;.} ",
"1.u ^ ~ _ _  .E.7./.D = ) k , i l i b [.oX' ^ b.n B B B B v.rXb O.c.mXG.I.yXc n v o.j i l +.G.' z i w w v ) 8 < v ) +.M.^.+XkX| r 4.).Y.y.1X`.W e t 4.5.7.8.Y 3.y.S } H p e t.W A [ {...6 p S $ :.e.Q K ",
"Y u / ^ _ ~ | t.5.Y.3 w _ i w ) n n ) ^ u f ` P.c.O.B N D.l c.c +.O.eXo.L.#.9 > , 9 i O.+.c c ! / F s p ~ #.c 8 , ! ! _ G {.fXP A 4.U Q.'.Q.`.1.A e <X5.@X*X*X3X~.A { / D F y.2.t = 4 _ _ p Z A Q :.Q Q ",
"<.f _ ) _ / / 2.Y.R.= p k c i N.- o.+.a q 4.P a n B B h D.> - v , j < , o.- > 9 9 n c.k ) +.$./ U S / D k ~ y 2 3 y p p D {.OXU t | t 7.Q.r.`.Q.K q 6XM.*X2X8Xk.d.A } ..p 6 } W G D 3 p _ ~ Z e } =.Q E ",
"7.T ' _ ' ^ H / U Y.! ! _ i w a : n ` w w m.^ i i g @.h 7 x g B j j > l V > - D.B c.O.O.i B.$.R.T.t.%._ ..$.F 3 P y p y / /.5.Y ; [ W 5.3.d.y.Q.Y u 7X:X,X*X9.-.s.r 1. .k D } 1./ H = y _ _ e Z e.=.} } ",
"C.q ' | P | U t U E./ n.{.s 3 | y ' B.' 5 [.z j , g J.@.@ + m V h > x B x 9 l 9 n +.N.+.a +.s ' ! | / u I ( P u G i 3 H.n.).7.1.q [ /.J } d.y.Q.m.,.xXxX,XcX@XS.[.b.Y.4.s 6  . ...Z 1 H } } X.Z H t.[ H ",
"^.w ' 4.P 5.| I U n.4.| %.H s _ G / n.$.i z : v #.j J.g + g 9 v.M # &.C + + + x.) ) #.b p ^ s ' B.b.P I W W U ( ^ p p B.{.4Xp.J e 5.Y.U u.d.Q.M.I C.CXVXvXVXcXGXxXjXfXC.p i | { [ Z D [ T.e.=.Z X. .P D ",
"[.u 4.n./ M.5./ | U A y p F G $./ G n.b.~ ; & > - - j g 9 + 0 x 7 N O O x DXgXO.` V.+. X!  X/ C./ H P 5.W.y.t.T.n.[ G / n.`.Q.L 2 / Y.e.y.Q W `.6.dXSXCXxXcXcX5XAXAXcXM.y 3 %.{  .S Z Z E Q E S D X.y 4 ",
"XXs b.C./ n.4. .| G t [ R...G | { _ n.n.| z z w i 9 L.B 9 + @ V &.qXB 9 l V.x.9 z ^ ' $.] n.( n./ / ( 2.y.2.Q S H / ..G t.).~.R 7.U Y.2.r.u.A ~.|.dXSXBXCXCXzX5XBXVXxXM.w 3 5.5.{ E Z X.K } Z S Z D Z [ ",
"[.p 4.C.P M.4.4.| | 3 G n.y y $.b.| | _ / m.C.B.H.0 + + > g x h g 9 B l c.V.b b.V.b.n.' b.n.R.R.B. .} e.e.u.e.E 4 Z ..4 5.Q._.:.W.M.W.S Q '.W 1.{.m.BXvXfXlX9X5XjXxX<X7.s 2 1.} { E Z [ Q u.S E S S S } ",
"[.d ' C.^ R.4.4.e n.H | {.F F | n.| { ( u M.M.|.>XC.` O.-   h O . 0 c.n pXXX>X.XsX4X{.|.[.+X|.+X+XOX+XOXQ.e.e.=.X.H [ 1 } '._.s.5.OX7.W 3.Q.d.y.5.u kX>X|.:X%X:X4XfX(.6.P ; { 2.e.H Z 4 Q e.X.X.S K K 2.",
"hX] ' C.P C.( / y / y u / y F n.| | 4.Y u 7.8.(.|.4.hXV.x x @ > B m v.v.nXV.P.,.M.,.n.( Y.{ n.( /  .T.T.e.e.T.T.} X. .4 t./.d.2.<.7.r 2.Q.r.W K Y A |.^.|.).%X%X).>X9.1.P ; } 2.} S [ Z e.e.S S Q R Q e.",
"SXb.,.A.^ M.! y | t e ^ { G s Y. .( 5.u u ).W.@XlX|.xXV.c.D.x V V.,.,X] C.x.' ,.' ( u U G | / / ~ / [ G S T.'.X.=.E [ * [ y.Y.Q.7.|./.`.&Xd.Q Y 4.4.m.( M.7.W.0.(.,X7.<.P 2 1.W :.E Z 4 S } Z E H E W 5.",
"AXV.,.C.^ C.^.R.R.q y F | r ^ R.4.' 5.A Y W s.@XzXlXsX Xv.C h x v.m.P.iXhXC.b ^ ^ d r u r q y y ] p * = 3 4 } %... ...* ( E.M.4X^.fX9XlX6Xu.U K 4.P ,.u I W.~.s.(.}.6.<.,.: Y 2.y.W E 1 } :.Z [ D ..D z ",
",XP.x.A.A.].' C.C.y F G 4.t U R.5.| Y.I L L s.`.9XcXlX>XG.v.> g v.S.,XBXDXpXP.A.}.A.Z.Z.C.m.b.' i i p w q 3  .R.E. .s y u ^.m.xX>XxXcXlX<Xu.2.K | ^ M.n.W.).%X%XCXvX:X6.m.] Y 1.Y.{ / 4 Q e.S / 3 +.#.%.",
"V.hXBXjXBXjXC._ ].y s / b.u / ^.n.4.W.Y Y J 3.#X6XlXxXxXZXMXF.@.GX,XvXSXJXDXBXgXVXcX5X,X:XXXP.V.x.b i 0 w p C.R.$./ p w s C.[.xXBX5X5X).1.1.1.( ^.C.gXxXxX6X9XcXSXCXdX:X}.XX7.7.Q.1./ e E e.[ X.3 #.H.tX",
".XiXAXBXBXHXgXa R.s u ^ | A / /.n.4.W.Y W L r.).<XlXxXCXHXJXaXU.CX5XCXHXJXJXJXnXAXvX}.x.b.V.c.n ) n O.+.) 3 _ %.D s s w f A.U..XGXm.m.Z.7.1.( ( jXgXBXVXCX5X9XcXSXSXcXvXBXBX5X).Q.} U t K e.{ D p %.L.oX",
"}.m ,.U..XjXtXi C.p s / 4.F U /.M.5.W.Y { W y.!.3.4XxXCXSXFXMXFXCX5XBXHXKXLXLXnXHXVXaXU.U.rXI.D.m 9 m c.+.= p / p ^ G C.x.xXrXrXhX}.S.M.(.M.6.{.AXDXSXZXVXlXlXcXSXJXAXCXHXjXcX(.W.2./ A K t. .y i ^ ^ x.",
"m d m ,.b.P.' p b.p G 4.n.U U ^.R.M./.U ;.;.y.y.Y W.5XxXBXGXDXHXVXGXhXhXyXMXLXZXFXGXGX,XU.aXbXI.O.0 & a +.w s _ y u I XXhXSXHXHXSXSXBXS.m.^.C.sXDXHXDXBXAXcXzXcXFXJXAXFXZX.XxX^.M.7.P A U y.5.t / ' b.sX",
"0 v.v.,.V.XXz w b.p s | 4.P P (.^.Y./.U { 2.T.y.7.Y.^.[.P.V.aXaXcX,XU.V.D.qXPXMXU.U.GX,XU.aXLXMXv.m : i ` 5 p | / u G 4.dXBXHXHXAXSXAX}.6.^.m.m.pXpXaX.XBX,X,X,XqXaXaXaXaX XsX^.6.M.P u A y.5.y ! ^ $.mX",
"v.,.m v.rXnXb : N.p y ' ( I U |.M.Y.(.I W 3.Q.s.W.7.M.m.b a U.aXS.m.x.n B J.aXqXF.v.S.F.m U.LXJXbXN.+ O p i z $.4X{.( ' C.dXxXhXBXiXdXS.<.C.m.,.P.P.V.G.aXS.S.S.F.F.qX,XI..X}.Z.5.Y.I y A Y. .s / ~ %.ZX",
"U.m 0 @ V V m a H.i 2 | ( f J }.}.m.{.U ;.>.Q.y.u.y.7.Y ) o.O.c.,.V.,.` n G.I.I.x.f m a + ` FXU.qXeX+ i z a ) $.{.sX' b.P C.4X}.:X).S.6.m.A.4.( M.A.' V.XXN.D.D.&.V U.}.P.m.| 1.6.!.A r P M.E.A ~ _ B.K.",
"rX9 + @ 9 @ @.@ L.a q ,.4.f ] }.A.m.}.( ;.;.d.'.y.3.3.Y z j n ` m a m m m B x.O.b ' P.f & V.hXpXuXuX& i O.a s [.H.H.b.R.' I M.OX).Z.8.<.,.m.4.8.7.1.s ' N.c.N M J.D.V.S.C.( s W.6.Q.u I s E.{ t _ ~ o.n ",
"AXv.V h F.F.@.> V.l w | 4.f m.>XdX}. XI 1.;.Q.'.T.u.s.5.+.z K.I.` ` v.` I.I.rX X+.U..XiX` b m c.wXJ.. , N.` b DXHXHXSXmXXXb./.xXVXdX>X5XiXC.,.4.s.5.P ' d ` B F.V F.V.U.A.( u |.lXzXM.M.$.{. .r ~ 8 *.~ ",
"bXqXh # F.qXF.@ G.i : x.^.] 5XVXZXjXsX^ 7.3.~.`.y.W.7.M.+.c mXDX,X` x.P..XBXJXNXO.b O.z v.tXn n 8 j O c.pXP.+.xXBXBXBXxXDXxXjXSXHXxXxXAXJXiXA.Z.!.7.I ( I ` x h F.qXU.,XP.[.| kXOX|.4.F _ B.5.2 v < V &.",
"aX&.qXV M LXwX# J.i & b.C.s P.iXhXZXKXb.Y.3.OX1XW.W.s.M.$.i ZXHXCX.Xx.gXJXKXZXJXP.m l O.G.O.n j , > + #.V.b.x..XhXiXrXZXHXHXhXVXJXZXBXDXKXU.m.6.s.s.f <.<.] c.N LXPXGXGXaX.X_ ' 4.4.f ; i B.R.w N < N wX",
"&.V &.C C UXwX9 N.- = b.4.0 ] m.gXjXZX+.6.7.1X1X).).`.^.b.=  XdXhXx.x.hXnXZXpXpXj g K.l l K.#.l - g n ZXBXjXhX.X X.XP.pXhXjXdXvXrXeXrXpXMXH.[.Z.9.Q.J Y Y d  XqXbXqXU.U.` b 5 ' | 4.s : = %.n.p 8 @ N F.",
"F.# # # V wX&.x @.& w N.' z ' G..XI.rX^ 4.7.4X4X/./.).W.b.+ ] x.A. Xx.V.gXhXU.G.B g @ > g n B 9 - g l FXnXBXHXDXHXHXSXnXrXV.P.V.K.qXI.U.eXv.A.6.@X@XT 4.<.d o.&.  M F.V.+.i $ ! q q ; $ . c ) i 7 # C &.",
"&.@ # M V # F.h #.9 l +.0 0 0 m v.o.eX#.m.M.fXfX(./.@X^.[.& b ,.A.x.b l P.c.B n g x g N h v 9 g > x 0 rXiXiXSXAXHXDXJXHXBX` V.v.J.K.G.O.J.c.hX<X3X9XM.A.T d N wXwXUXU.- - & $ ~ s w ) 5 , k $.) 7 M C C ",
"C @ @ M M C   # V m 9 v.) i O.G.D.c.o.c m.(.jXSX+X(.@X<Xb.o ' P.' c.a b x.V.F.@.8 &.N M B h 9 g g 9 c.aXpXFXGXBXZXaXaXFXaXm x.,.K.G.x.n yXI.iX(.W.7.I / ^ 0 J.UXUXIXF.O.k v v ].+.) +.c 8 v +.k 7 h N UX",
"V h   M C M # # V O.l V.x.b c.I.I.qXJ.o.x.4.[.sX}.}.<X4XV.& m.>X.XoX+.` V.U.aXJ.N &.N N V x g l B B pXJXSXAXhXnXU.U.U.iX.X` P.U.P.H..Xf G.z m.4.( T y a ^ 9 F.bXUXIXI.L.o.*.8 #.v p c g < 7 ) z > h M yX",
"M C @ # M M # # x n 9 c.` l O.F.I.qXqXD.x.] ,.C.oXdXxXlXV.+ m.dXgXeX+.z ` G.pXJ.&.wXC V &.o.n x D.V qXDXnXFX,XU.v.v.V. XG.b .XiX[.m.' d c.I.b : I u w : ) g wXqXUXIXJ.@.v 5 $ 8 5 i 5 , o o +.n # h M wX"
};
