/* XPM */
static char *_614971888110[] = {
/* columns rows colors chars-per-pixel */
"100 75 256 2 ",
"   c #040102",
".  c #0B0201",
"X  c #02010A",
"o  c #0A030B",
"O  c #0C0A08",
"+  c #130501",
"@  c #140B03",
"#  c #1B0C03",
"$  c #130C0B",
"%  c #1A0D0A",
"&  c #150608",
"*  c #1C1205",
"=  c #14110C",
"-  c #1C130C",
";  c #1A1607",
":  c #020212",
">  c #090917",
",  c #120C12",
"<  c #160D18",
"1  c #0B121B",
"2  c #1C1413",
"3  c #1D1A13",
"4  c #14131B",
"5  c #1A141B",
"6  c #1D1A1B",
"7  c #141415",
"8  c #0E100B",
"9  c #230D06",
"0  c #231304",
"q  c #23140C",
"w  c #241A0D",
"e  c #2B1B0C",
"r  c #2B1706",
"t  c #341A07",
"y  c #231513",
"u  c #241B13",
"i  c #2B1C14",
"p  c #241C1B",
"a  c #2A1D1B",
"s  c #251619",
"d  c #321C15",
"f  c #210D16",
"g  c #38240B",
"h  c #2B2215",
"j  c #2C231B",
"k  c #282419",
"l  c #332314",
"z  c #33251C",
"x  c #3A261C",
"c  c #342A1D",
"v  c #3B2C1C",
"b  c #392814",
"n  c #39311D",
"m  c #29220C",
"M  c #141323",
"N  c #1A1927",
"B  c #1C1D32",
"V  c #101124",
"C  c #231D23",
"Z  c #261C28",
"A  c #281B33",
"S  c #1B222B",
"D  c #1D2336",
"F  c #242224",
"G  c #2C2423",
"H  c #2D2A25",
"J  c #2C2A2C",
"K  c #27252B",
"L  c #332623",
"P  c #342B23",
"I  c #3B2D24",
"U  c #342B2B",
"Y  c #3A2E2A",
"T  c #362528",
"R  c #3B3225",
"E  c #3C322B",
"W  c #37332A",
"Q  c #282937",
"!  c #342D33",
"~  c #392C35",
"^  c #343334",
"/  c #3C3433",
"(  c #3D3B3B",
")  c #393638",
"_  c #2E3137",
"`  c #442C17",
"'  c #44321C",
"]  c #4B351B",
"[  c #55381A",
"{  c #472C0C",
"}  c #422D24",
"|  c #433324",
" . c #43342B",
".. c #4A352B",
"X. c #443A2C",
"o. c #4C3B2C",
"O. c #4A3925",
"+. c #553C27",
"@. c #423533",
"#. c #443B33",
"$. c #4B3D34",
"%. c #443C3A",
"&. c #4A3D3B",
"*. c #443637",
"=. c #523E34",
"-. c #543D35",
";. c #412C32",
":. c #623F17",
">. c #3D413B",
",. c #57441D",
"<. c #4D422C",
"1. c #54432C",
"2. c #5A452B",
"3. c #4C4234",
"4. c #4C433B",
"5. c #454339",
"6. c #544334",
"7. c #5B4B34",
"8. c #53443B",
"9. c #534A3C",
"0. c #5B4B3C",
"q. c #584736",
"w. c #5C523B",
"e. c #66492B",
"r. c #644A36",
"t. c #67553A",
"y. c #715631",
"u. c #7A6439",
"i. c #60421C",
"p. c #2C3446",
"a. c #383948",
"s. c #393B54",
"d. c #2D2C44",
"f. c #463C44",
"g. c #463B54",
"h. c #3C4249",
"j. c #3B4358",
"k. c #3E4762",
"l. c #4C4443",
"z. c #484648",
"x. c #524643",
"c. c #544B43",
"v. c #5B4C43",
"b. c #544B4B",
"n. c #5B4D4B",
"m. c #554646",
"M. c #5C5244",
"N. c #5C534A",
"B. c #56534B",
"V. c #464858",
"C. c #544C56",
"Z. c #4A515C",
"A. c #595658",
"S. c #4E504B",
"D. c #624D44",
"F. c #645344",
"G. c #6B5C4C",
"H. c #665748",
"J. c #775D45",
"K. c #645B53",
"L. c #6C5C53",
"P. c #645958",
"I. c #715D54",
"U. c #6C604B",
"Y. c #77644B",
"T. c #6C635B",
"R. c #6B6457",
"E. c #726353",
"W. c #776859",
"Q. c #7D705D",
"!. c #464B65",
"~. c #534C63",
"^. c #4C5468",
"/. c #53556A",
"(. c #555A6C",
"). c #5B5B6C",
"_. c #595766",
"`. c #4D5973",
"'. c #575C74",
"]. c #4C4F70",
"[. c #635C68",
"{. c #635E73",
"}. c #5C616B",
"|. c #5C6174",
" X c #576377",
".X c #696667",
"XX c #756B68",
"oX c #7A7369",
"OX c #636374",
"+X c #63647A",
"@X c #6A6A77",
"#X c #797576",
"$X c #706F77",
"%X c #87663A",
"&X c #86684A",
"*X c #846C56",
"=X c #867458",
"-X c #8F754F",
";X c #877868",
":X c #867B77",
">X c #917A63",
",X c #A17F5A",
"<X c #968358",
"1X c #AC8D57",
"2X c #8A8379",
"3X c #978879",
"4X c #95876C",
"5X c #AB9272",
"6X c #BAA677",
"7X c #C6A873",
"8X c #C49D74",
"9X c #787A86",
"0X c #6A6E84",
"qX c #5B6986",
"wX c #857C81",
"eX c #7D8085",
"rX c #8A8585",
"tX c #958B86",
"yX c #989389",
"uX c #999796",
"iX c #8E8B95",
"pX c #A99B86",
"aX c #A59B97",
"sX c #B29E86",
"dX c #AAA198",
"fX c #B6A690",
"gX c #9A99A4",
"hX c #A8A6A7",
"jX c #B3B0B0",
"kX c #A0A1A7",
"lX c #CCB48F",
"zX c #C6B9A8",
"xX c #C7BDB7",
"cX c #E3BA90",
"vX c #C8C3B9",
"bX c #D6CAB8",
"nX c #D2C8AE",
"mX c #E9D4B3",
"MX c #EAD3A4",
"NX c #BDBBC4",
"BX c #DAD5C7",
"VX c #D0CECD",
"CX c #E5DAC9",
"ZX c #E8DCD1",
"AX c #F9E6C9",
"SX c #F9EAD7",
"DX c #FEF8DA",
"FX c #F3ECCF",
"GX c #FFFCE3",
"HX c #FFFDEB",
"JX c #FDF5E6",
"KX c #FEFDFE",
"LX c #FEFBF4",
"PX c #EAE9E9",
"IX c #DEDDE3",
"UX c #C3BDC1",
/* pixels */
"P.b.G $ s G 6 F 7   U W -   Y W O k k 7 8 k U F y %.U p *.f.Z Z &.! J >.h.) >.>.h.>.5.S.5./ %.B.( h.h.h.h.a.h.A.5.>.z.) ^ >.^ / z.g.f.%.*.f.x.%.%.W W R m k n n / F s < ~ U ! Z 5 ~ ~ ! f.%.Z a T Z ;.f ",
"b.*.s . 7 C G G p = / / G - P P k H W H J ( 5.) l.A.n.f.n.D.f.m.C.z.l.S.S.>.>.S.5.S.S.( 5.S.l.G J K K ^ S.S.z.z.h.( z.5.>.>.W ) J f.f.~ U f.c.W W c W #.<.>.n k P G / U @.G ;./ p U L T ~ / / @.;.T *.T ",
"f.U s 5 6 U / U U H / E #.E X.Y ) >.W G k H %.l.&.l.m.l.f.f.f.m.b.z.f.a.>.>.>.>.( ( %.l.B.b.x.&.( z.z.5.5.) J H ( H / W / / J ) / G U / Y U @.%.3.P v W E <.X.R W j P L 4.$.$.E Y L R X.Y P E Y T ;.;.f.",
"/ K U ! G ^ l./ / / P G $.4.X.E #.W c h k j P #.n.x.b.n.&.@.;.@.U ! ! ! ^ ( _ J ^ H U *.Y s a @.%.B.B.z.z.l.*.@.4.P W / ) 5.<.B.b.L P %.*.W $.c.4.W z h z X.9.9.9.| x c v.M.F.$.3.v R 3.| R  . .T T ;.m.",
"! U ( / C Z E U j Y w i X.4.I v E z h R 4.4.#.E E z T *.Y d T ;.T ;.*.*.f.z.( G ;.f.n.-.f.n.D.f.L I j P 9.K.c.#.4.P  .@.3.B.9.K.4.c.8./ #.N.D. .w u z j l E 8.8.w.1.q.<.G.Y.Q.E.1.n ' 3.X.<.7.6...Y E c.",
") ( ( J 2 q G Y P Y i c o.6.c c X.X.X.R v I X.8.N.8.-.8.8.*.*.m.*.f.f.m.n.n.&.U d T ;.f.I.I.I.q.o.$.$.6.L.W.E.I.8. .6.6.M.W.L.R.H.N.H.9.$.3.I + . # e q % z $.=.w.<.7.7.Q.;X;XU.<.<.7.t.t.7.<.b v c R E ",
"a.z.) G s a P #.o. .l | o.6.| q.9.0.6.v e w I 6.L.I.H.D.8.d i } m.D.P.L.I.L.n.$.I.f.-.I.*Xm.} } + t ` ' | | -.G.G.F.G.D.G.;X;X;XE.7.q.F.o.0 + . . + 9 + . q #.$.w.<.<.O.Y.=XY.7.] w.U.U.H.1.l r i h o.R ",
"^ f./ k P W E q.q.o.l | | 6.q.E.H.q.' I o.q.| q v D.L.L.W.D.-.L.I.L.I.XX;XXXL.F.-.I.I.r.-...` t t g x ' ' b b +.G.r.q.} -.W.XX;X6.o.6.o.l # # + + # q + + 9 I } 0.7.t.<.w.w.t.w.<.Y.U.7.1.] b ` v O.R.<.",
"5 6 / %.T ;.D.D.E.F.q.1.6.F.G.7.` v b x ..l ..' | o.l =.I.0.v.F.-.G.W.*X4XQ.U.7.<.U.7.b ] ] t 0 t ] g O.O.` ] 0 ..F.q.-.6.D.F.=.| t.6.r 0 0 # + 9 q q + + + y } 0.E.D.' } 6.6.+.I.F.=.| v b b x } ..q.r.",
"U W &.$...D.*X;X;Xt.+.=.q.0.6.v + g # +.fX1.8.q.} q...x x 0.W.o.-.r.F.L.Q.U.w.1.<.u.t.] ` b t t t { { ` ` ] +.O.` q.I.v... .....O.6.| w * w 0 # + q 9 . + + q T } F.L.8.-.8.0.0.L.v...z d q i e ` ..0.F.",
"P E ..Y ` D.>X>X>Xt...6.w.6.R * e 0 # 2.E.>X6.F.F.F.I 0 # 0 X.6.6.1.O.+.w.7.<.7.Y.w.O.g g { { t { { +.[ [ e.7.r.=.O.E.H...8.&.&.M.<.v w 0 w w # q e # + y z u % Y v.m. .I c ..c.H.8.} i 9 # + + d x ..-.",
"E 3.v.q.r.F.*X>X*X2.+.r.0.X.h w v 0 t H.F.>Xl o.D.;XQ.W.R.v i H.F.0.O.n n <.<.w.<X<.m m r ' ] r ` [ r.e.r.r.7.1...d I.L.4.n.8.m.R.R z j * * w # z j # + Y f.Y - a P I i y i *.L.&. .T y & + + . 9 q q i ",
"e v =.t.r.` +.J.e.] r.U.9.k j / v ..# G.bXD.>XzX3XvXbX3XM. .l l R.L.9.3.9.9.M.R.K.n c l 0 g ' r { 2.+.7.r.O.7.l # + E..X*.*.! &.4.h y m # @ ; - a P %   % E %.%.z  .@.W P c P $.T j y # + + # % # # . . ",
"} ..r.Y.&X+.[ y.] ] t.W.<.; j 9.v | r 7.zXY.jXSXCXbXbXoXh E 3.3 4.K.K.B.B.B.N.R.S.k w ; . e v d ` r.{ 2.1.v q.l w q x.l.T U H ^ 5.c k u - + @ = u u . . % W $.&.$.m.4.$.$.Y P P ..Y i @ + + - h y @ . . ",
"| | } r.J.+.] e.[ O.t.E.>.= k 5.x l o.o.*XI.X.3.9.X.$.8.R.K.m + k l.A.l.5.5.S.S.5.W F 3 + w L q ' 2.] O.O.' X.x } Y U U ! *.a.*.l./ j y 2 @ + ; k - . . G @.E Y Y #.R c  .4.4.9.5.X.c - = @ ; u k =     ",
"2.| t ` J.J.e.2.2.2.H.U.R ; 7 W l O.l 9 yX..0 i @ I ; #.BXvXH E 2 &.n.*.U / %.z.W S..XB.H 2 i w b ] 1.] v v l h w *.l.b.b.f.f.%.5./ u @ 3 ; + 3 k 3 + . * a Y $.#.8.*.P Y E P P z j h w * * - u = O     ",
"v R R n 9.U.4.R E Y N.&.Y s Y u z x b z $.i L h = Y %.c.2X3Xu E W E #.3.3.9.4.( h.}.kXiXA.@.i 9 g ] ] ' n n n w - P j Y L #.c Y <.* ; . w @ @ ; j * = . x i y i d d s L ^ U *.#.R 0 e 0 u y   k 3       ",
"m h n k R K.5.3 2 2 / U U a U y v  .I q y . y p 2   +   $ / j P 9.N.U.U.U.N.c.5.Z.jXkXNXyXc.Y r b ' b b b l h 3 - P E 3.#.3...o.n W.X.m w ; ; ; k @ * # T d i d d f d L C G U Y h 9 e x z m 3 P W ; @   ",
"R m k m c B.l.s j a / / @.Y Y u I +.| w # . + = l.  @   * y i c P W n c c n E ) >.PXIXjXrX#X} x g g b n X.c m - ; m W R Y i x | W.BXM.w 8   * ; u + * i ..d ` ;.d 9 Y T y G p a i # e o.I q P ) c.5.m   ",
"3.@ ; 3 3 H P G f.&.l.l.b.l.@.j d } x i w . .   k - + . L Y # h k R 3.9.w.9.x.5.}.KXVXVXVXVXdX;X<.b b <.X.R y w c j Y u e # x v dXBX9.h m   @ 3 * . + c ..} -.-.t 9 =.Y s Y y y i r x 0.c # / l.c.B.U + ",
"3.8 ; k w j W / L L j L Y  .i # r v e w % # P 5.9.XXN.#.- #.y y m j c R | I L j 6 Z.hXPXVXVXaXLXY.<.| n R c * a X.c Y y w 0 | } $...= . w   . . . . . x } } r.r.g t r...j %.s y i d } D.x * c.K.3.c.#.G ",
">.k <.W R c.b.l.*.l./ @.*.4.P x e | e e + h oXBXjXjXvXZX#.P m ; / P i 0 0 q k U h.K k.VXIXPXBXxX9.m | R | R @ w Y P  .c i I 0.$.u + z @ y y 2 . + . . ` ` } D.e.t { e.} } &.s y q x -.-.x R K.R.$.8.9.4.",
"n k H j H 4.&.%.T @.a a a x 0 i r x e h # c tXLXjXdXvXPX4.= * @ u k P | x e a G 6   1 >.( #XXXP h # z c Y  .@ *  .$.v.8.z v.I.v.u # a +   @ . . + + + | ` -.J.i.g ,.7.] =.;.d f 9 } -.` R 0.B.9.@.R o.8.",
">.m ; ; j Y G $.a } q w w x r x 0 i # z @ 3 P.vXvXBXjXoX; @ w @ - u I Y e 9 i W J 4 X 8   N XXp c @ h @ # j @ i I 8.v.$.# =.H.8.q @   .   .   & . + + | ` r.*X+.g y.t.,.-.} t d d ..r.d ' K.3.j i # h E ",
"W ; 8 3 Y %.4.l.j L q i l t l v e + # e + . - - k k p 7 + P . . s % 8.-...r i ;.b.6 K K J S u - - h = . w # + h o.3.6.M.v q.6.w +   & .     . $ % % + =.' Y.u.7.,.u.u.t.,.n ; ; t +.D.-.r...* h w i E $.",
"c 3 = ; p k p j z z q q d x 6.6.# . # * . . 8     8 p 2   y   . $ + $.-...r d ..l.O 1             @ . + u * . * q.q.7.0.x 0.G.0.-   , , o ,   . & + 9 0.' u.=Xu.1X<X,.w.,.n r g t :.y.r.r...w c h l  .$.",
"H 3 ; 3 y 2 % - c a 9 9 r ` F.q.# . + .   @ G 7   O 7 p 2 H $ . . . ..-.+.t d 6.5.              . = . . # + . r 6.6.q.0.1.U.U.$.H O O X o < < 5   . e q.' -X1X<X6X1X<X<Xu.{ # t e.&X-X%Xr.e # = c z I I ",
"W k ; = 3 y y a z d i t 0 ` t.+.e + .   . O G C S K k F 2 k     . . #.q.r.t r 6.9.O       O 8 = 3 3 = @ ; * 0 v 1.w.Y.Y.G.=Xt.v 3 > X X X 4 N 5 O   v 0.w.6XMXlXcXlX5X-X,.,.,.y.y.1X1X%Xr.r y - h j c h ",
">.F ; $ 3 s a P $.} ` x r ` J.r.x . . &           7 7 6   o     . + ..r.r.t t -.N.3 8   O O ; 8 = 6 k P c n n <.,.U.4XU.Y.=XH.b   X 8 O X M K > . . R o.<XMXAXlXDXFXlX=X=XMXMX7X%XcX7X%X+.l j - ; h n k ",
"B.) 6 6 p k j c m.-.} b r ` &XI.8.&   + .         4   >   o $ $ . . } r.I.` t J.U.w k 8 8 8 k k H J W W n b ' 1.<.Y.pX<X6XzXQ.m   1 1 M 1 1 K 4 X & X.q.lXAXMXcX7XAXFX6X<XFXAX7X7XMXcX%Xe.| j 7 ; n n ; ",
"S.>.W U ^ G a a 8.8.} ` t { t.=XI.y .   . , N 4 _ ! o ,   X   . & # } F.>X2.[ *XR.>.>.>.>.H >.>.9.>.>.W ; 0 m ,.7.5XmXfXnXCX<Xm O : V h.a.N Q _ N W N.U.DXDXMXAXDXGXmX<X1XAXMX1X1X7X1X%Xt.0.P G R <.W ; ",
"( ^ ) z.%.H s y $.0.O.` { { r.-XG.L . . o 5 5 X > N X ,     , 7 3 * =.I.,Xt.e.4X<X<.B.B.S.>.z.5.>.>.5.>.m ; m m <.6XDX6X5X6XU.;     S 9X9Xp.Q K 6 H 9.w.DXDXlXDXDXGXFX<X{ 7X1X%X1X1X-Xy.t.q.= = 5.w.W ; ",
"s._ a.a.^ 4 %.s ..$.r.r.[ [ e.<X=Xo.q a . Z   Z Z X M Z     8 8 = w ; 4X6X4Xn mXfX1.M.R.oXh.z.h.S.z.A.>.k c m n <.nXGXbXCXBXR.W k   1 }.}.h.h.h.F S.k W.zXDXDXDXHXAXAXJ.] e.e.e.&X&X&Xt.F.x   m w.<.m * ",
"V._ K z.) H ^ % z -.2.e.e.:.y.1X5XF.l # & < o N N X X ,     m k m ; ; 2XnX5Xw.mXmX1.Q.;X5.H _ _ 7 >.XX>.3 c >.<.<.nXGXFXGXLXvXuXS X : 1 8 S h.A.6 >.n R.yXmXAXGXHXxX3Xt t ` +.-.=.r.r.8.6.h . R w.7.0 n ",
"h.p.Q _.K C d d l r.r.&X,Xy.u.fXsXG.9 . T 5 4 N > M _ S     8 8 ; 8 ; 6XDXlX=X6XGXY.F.9.>.>._ _ a.) ^ k k k @ m <.nXGXPXBXZXZXVXC.1 : X 1 Q _ A.1 k H ;XXX;X3XfXfX3XH.9 t d } +.' ..q.o.n 0 * 0.7.,.+ 7.",
"a._ V.P.C % d } 0 ] J.-XlX5X<XmXAXpXl % &.C Z Z o {.gXA.    6 8 H n n pXGXDXFXDXSXsXw.R K.A._ S C.z.z.z.5.H ; R >.4XzXGXLXGXvXT.z., > X S h.M S A.h.F K.} # # o.6.H...r ..} ;.;.Y ..8...e # g U.7.g 0 7.",
"V._ C.l.T d -.+.{ { -X,XcXlXu.lXSXbXv.# $ G ) d.> {.iXa.O 8 _ H k m w pXDXGXCXDXHXJX3XT..XC.A.).~.OX[.[.L.N.4.P w.R.Q.bXHXZXvXP.f.K A > Q ).Q K }.9XC.P.%.p $ $. .6.i & ;.n.n.) ~ / @.R 9 9 +.*X7.m ,.,.",
"h.a..X*.} r.,X-X-X[ ,X6XmXCX;XzXnXJXdXj   N _ Q V B K M 1 S J F k k R xXHXGXCXSXJXbX2X2XS.5.@X@X@XA.g.C.A.A.K.#.5.M.3.R.W.W.yX2X:XQ , M a.z._ h.^ rX.XC.! L &  .=.D.-.% ;.C._.C.z.z.&.*.d ..&X&Xe.g Y.1.",
"_ f.[.&...5XMXMX8X:.%XlXDXDXCXDXGXHXDXK.O O N 4 K S N Q h.S.>.>.z.m W ;XvXJXHXHXDXpX2XaXrXuX#X_.C.d.a.~.b.A.tX:X5.3.w w E c.N.j wXC . ~ f.~ ) z.rXkX[.z.2 5 y l.H.W.:Xm.z.A._.(.).A.b.P.r.*XsX*X+.e.-X2.",
"Q ( f. .e.AXSXAXMX%X%XlXFXGXDXCXHXZXCXB.3   6 a.Q a.j.j.Z.Z.Z.}.A.( v.#.3XFXGXbXbXoXM.#.[.jXA.).C.Q s f.A.rXtXP >.w.z @ v F.M.u I.[.:XwX:XtXuXoXT.( 8 #.3 O 3 x.:XXXyXT._.OX_.(.).~.C.XX*XsXmX,X[ &X&X+.",
"C G &...r.AXDXcXcX7X:.8XGXGXPXCXHXHXCXB.) W _ A.^.}.}.}.}.}.$X$XoXB.K.c.R.oX=X3.3.3.4.N.dX( _.A.C.d.o 5 U ( 2Xp N.R.3.j c G. .w c W %.4.3.$./ c k k H k m 8 k 2X*X# T m.OXOX@X0X X@X$X.XW.mXAX5X&X,Xe.:.",
"! %.l...r.lXlX,Xy.%X:.lXGXDXGXHXJXJXBXXXA..X.X_.$X$X#X X.X$X$X$XXX2X:X8.8.X. .c K.K.#./ #Xl.A.z.f.f.! l.XXXXtXP R.K.R @ % 3.l * P c R I c E 3.R >.n k m ; ; k R.pXy @.n.S._.9X@XiXhX2XoXfX>XAX5XsXsXr.+.",
"U @.Y ' -.&Xe.:.i.e.{ Y.5XfXbXHXHXfX:XN.K..X$XS.}.eXeXeXeX$X}.R.XXaXR. .R.M.v @ X.K.3.P P.XXuXuX:XwX$XP.A.*.@.. $.#.k y c H.#.} <.5.9.9.<.<.3.<.<.n m m ; m m >.yXF.D.b.P.C._.XXgXKXUXBXJXCXGXnXAXsXe.[ ",
"2 q i l ..r.{ t ] [ g ] E.2XR.:XtXE &.T.#XrXuX.XS.A..X#X#XoXoX}.K.yXc. .R.9.E h B.oXc.k u / A.N.;.f.l.U Y ~ E *.K.4.a 0 i $.P Y c.N.R.R.K.M.w.3.<.m n k k k c W o.3XoX- 4.uXjXiXrXZXVXyXHXGXGXmXSX,X` t ",
"; # e I ` r.r.9 r r t l F.E...} i i n.H.E l.rXA.A.A.}..X.XoX#X2XaX:Xu I R.R.9.; R 3.k ; 3 / 5.) U E E P &.c.j P a q + % i &.i z = - 3 y ; h | | <.n O.c m c R 3.v 0.R.F.;XxXCXaXZXLXSXjXHXJXbXHXbX&X` t ",
"l * x X.} r.I.9 w 0 q 9  .&...} & 9 f.m.P ) yXyXyXuXuXdXuXyX2X2X$.o.q  .R z m * R 3.3./ R 5.4.5.#.8.4.4.9.c.Y #.Y L i d L ..# % $ 8 $ = # c 4.0.w.<.X.m w R 5.M.X.o.6.Q.jXzXzXyXjXHXJXLXGXHXCXGX5Xe.e.+.",
"e e I o.4.$.P.d . # d i } T ..} d & s m.l.@ H W w.B.R.oX.XM.5.<. .X.x 3.9.w.z ; ; W B.5.R P 3.9.3.9.X.E i j c x.m.$.d a T D.$.f.. o 5 6 s P -.8.0.9.O.* i #.$.N.R U.X.0 Y.5XfX>X2.5XSXDXHXBXHXBX&X+.D.e.",
"# a v o.F.X.D.8.. + q y ;.I D.f.T d y Y @.. p u >.n >.>.<.>.4.9.$.F.X.R I X.@ ; w m <.k k 3 k $ . @   @ + z 3.G.3.8.x.v.n.D.y +   o , 2 2 P &.v.&.q.Y # Y c.*.x.G.6.6.t.q.x 2.d 7.2.tXpX2XE.3X4X` d &X-.",
"a q q.r.,.7.,.Y.0 . f d P.wXW.XX;XA f f f.T # y j #.z E c.l.c.c.K.v.X.n n e * w l P &.E   o X     O   .   n 0.K.G.<...i P.A.& . s f Z % p C l.c.b.#.- % } &.-.....D.H.6.6. .h z G.m l | g H.4X1.` e.H.-.",
"~ f  .2.e.y.e.Y.2.v x f.rXtX:X:XtX[.P.f f T T Y I M.4.v.K.N.P.n.I c c | <.] v o.| ..c.%.  , o X X     .   W 0.t.U.R c i I.z.o o . & T % & s b.l.c.%.j a $.v.-.} x r.I.L.D.P w c N.k l O.b 7.Y.,.} -.r.D.",
"~ y a O.e.t.u.-X5XD.P.;.b.P.x.#X:X[.aXT d ;.c # * P h u a y - . w w l 3.K.0.o.q.3.8.L.b.$ 5 < X X   8 . ; c w.M.U.h w i P.~ . < ;.. o o     ! ) / Y j T v.D.=.| d ` ..-.8...&.L.W w h | <.w.t.b 1.9.q.v.",
"~ L i ..2.2.Y.3XpXtXL.f.C 7 b.tXrXn.aXT a ;.I z u - + + .   . . - * m 9.E.F.| ' X.8.XXP.% 5 , X X X 4 . ; k B.U.U.c j L A.~ o 5 g., , Z ,   6 C 7 3 2 j &.v.$. .;.x y i } f.N.P.u ; h n 1.w.n 0 w.9.9.v.",
"g.f.P v O.1.Q.6XzXzXoXK.G / W XXoXn.jX-.Y  .4.M.h .   % % . . , % + @ | G.F.R l m ..T.A.o o X X X X 1   O 8 5.R.N.5.W Y C.! < M < A g.~ X 7 K 8 O = = 3 W #.E P d d y y P c.B.4.# @ v c.W.G.7.;XR.N.B.R.",
"[.P./ m ' w.W.sXAXZXT.XXP..XA.W ; $.zXG.X.3.4.3.w     - ,   X . - + + z F.H. .e e | L.n.. o o X X X 1 8     W 5.5.E / J ( Z M > > N N M X > > 8 6 C 3 7 j j u y & 9 y s y *.l.W G - $.K.U.| v 3XdX#XK.A.",
".X[.c.y c w.U.5XSXJXR.rXxXtXPXB.k L.fX9.I 3.c.c.Y 2 U G , , X o $ - * h 8.H.o.i z } P.m.  o : > X > 1 1   O 7 J W H U K Q 1 N M d.B : B N M X K J _ F 3 s 3 = 2 s y s 2 $ p P 3 + = 4.R.2X3X;XjXyX#X}.A.",
"[.XXXXH j 0.H.fXHXZXZX2XvXPXvX2X;XfXzXU.8.0.c.8.U s / 5   o o o . $ & - $.n.$.i L Y m.(   o : : > 1 1 D O 8 8 8 J H J J Q 1 Q Q d.s.a.V.V.V.K z._ ^ H 6 6 6 7 3 $     2 s G P = . u 8.X.L.yXv.G ( Z. X|.",
"$X$X.X[.j x H.pXSXGXGXyXvXBXjXBXLXJXfXF.c v.x.n.x., Z C X X : > K . s & Y Y m...@.@.U ,   X : : > S 1 > 1     S 1 J N K _ p.^.V.V.'.].!.V._.|.Z.( ( S.>.7 X 4 O o     2 $ l.l.2 % y $.N...aXI.  K j.(.|.",
"#X#XXXI.E x 0.3XAXDXDXbXCXJXPXLXJXnX4X9.P 8.&.n.%.X , 4 X X > X M 5 C.o 2 ~ / s s H ! Z 4 > V V V D S 1 S 1 X Q _ h.h.Z.^.Z.(.j.`.'.(.^.^.~.iXkXNXiX9XZ.J K K , 7   , , j P.c.E  .P  . .m.K.3X*.a.(.|. X",
"#X#X#X.XA.x -.>XAXDXAXDXDXHXHXHXSX3XF.8.P $.@.m.f.X X : X > M V N N .X5 5 %.H C ^ ! J 4 X : : V p.k.j.h.h.D D h.Z.(.Z.(.(./.'.^.|.^. X XOX9XIXKXPXLXVXiX$Xh.: K N   6 $ ) P.&.v.} T =.;.q.z :XtX).OX X|.",
".X$X#XXX#X..| I.fXDXnXDXGXGXLXLXzX;XF.H.I P T a.f.o X V M N B V B X Q > M N 5 C ! J N N > > B j.^.`.`.^.(.k.V.).}.|.(.(./.(.'. X X`.}.Z.A.9XVXIXhXjXPXVXA.z.Q Q 6 o = $ m.c. .q.} d -.D.$.$.0.aXiX0X}. X",
"R.oX#XoX:X-.I +.5XDXnXMXSXAXZXVX3XI.W.I.a C C A N > V A Q B N V D V > N Q 4 Z N Q Q p.j.k.k.k.`.`.`.`.`./.^./.+X/._.{.qX X'.`.'. X X$X}.$X9XVXVXUXIXIXjXOX_._ a.F N . y A. .}  .-.....G.D.L.x n.hXiX$X@X",
"A..X.XXX:Xv.` ` u.lX6X<X4X;XH.v 8.D.XXL.s f < f < > > B B V B B d.s.p.V.V.s._.h._ h.Z.(. X`.k.`.`.`.`.`./.].'.'.{.].'.'.`.'.].].p.k.Z.}..X.XtXhXKXKXPXVXA.(./.Q J ( $ U K.z } } -.r.x m.I.v.0.P T.yXuXeX",
"B.A.A.T.L.P.1.g ,.<X6Xu.y.Q.m.q L -.D.f.s s o > > V : V V B s.D d.k.^.^.^.+X$XZ._ h.k.k.`.`.qXqXqX`.`. X].{.qX{.0Xk.k.g.!.].k.!._ 0X}.0X9XuXwX#XhXKXNXiX{.{.~.Z._ ( C %.&.x x ..+.-.d x -.-.G.#.H R.yXyX",
"3.9.l.K.v.W.7.] g ,.6X&X,.>XH.q z  .;.~ f Z : : : V > B d.s.k.D ].k.(./.).9XOXC.j.(.@X X`.`.`.`.`.`. X X].'.{.{.].s.s.g.{.0Xs.p.> 0X}.#XhXKXxX$X:XIXrXOX_.{./.~.Q ^ U &.P c y -.D.d t 9 x I.9.5.n <.R.yX",
"7.<.6.c.0.0.-.v g g &XQ.2.<.D.a i j ~ F : B Q : : B D S h.V.a.S k.].{.@XjXBXVXhX}.$XA.}. X X'.`.`. X X X X X|.).g.;.g.g.~.~.g.B > k.(.@XxXKXxXdXwX#X@X{.].{.{.{.V., ^ U Y *.z 8.-.i 9 q 9 T n.f.8.e I v.",
"w.7.q.F.c.v.8.| n O.t.U.H.7.} + % 7 G N B p.s.D B s.j.h.j.V._ V d.g.iXKXVXBXBXGX#X.XA.|.^.j./.^. X X^.}.}.}.OX_.g.A A A A A a.g.D ].|.(.[..Xn.tX#X{.[.{.0X+X)._._._ J J Y / Y  .i a y & & % ;.P.=.x l | ",
"U.w.M.N.v.n.8. .g n m O.=XW.z q + $ 7 4 B p.k.k.p.k.k.h.V.V.Q V D qXjXKXrXvXCXHXuX$XOX@Xs.B p.d.(.(.^. X{.).OX{.d.A A A A : A g.k.k.k.}.[.%.T rXjXiX)./.).)./.).}.z.N 6 s G E a & L y + . . & f.f...} d ",
"U.w.M.G.H.D.c.$.h ' g t.4X;Xd q . 2 5 4 Q s.j.^.j.k.j.h.j.g.d.d.!.9XjXPXIXBXvXPXPXVXiX+Xd.> B D ^. X(. X+X{.{.).{.~.~.< > > g.~.k.qX].@Xf.s f XXKXNX9X'.'.'.{.+X(.Z.K 6 O F U p i a % + + . . f ;.&.;.T ",
"K.M.M.K.n.n.n.*.+ | <.U.*X;X..&   3 C Z _ j.k.k.j.k.V.h.Z./.~.~.{.wXhXKXLXLXvXjXKXKXgXs.N : V p.(.+X{._./._.{.{.[.~.~.A V N V.~.k. XZ.C.C . & &.jXkX9X|.'.{.'.!.h.h.>.Q 8 S 6 j k +   +   . . . s T ;.;.",
"B.4.l.b.b.z.f.Y q.:X3XW.v.I.m.d . $ C Q p.!.!.j.j.Z.V.Z.).)./.).{.9XkXKXvXBXyXR.hXNXOXN V : > p.!.+X].s.s._.0X_.0X~.~.{.{.OX+XqX X0X!.a.C u , $ C.). X^.!.].k.d.Q Q h.j.7 S   5 ,     .     O   < C ~ g.",
"c.l.b.C.C.m.f.Y 4.:XpX>X:X:XtXaX4.u 5 _ a.s.!.!.k.Z.Z.^.{.)./.{.$X~.9XPXhX2X5.H ^ C.K > V : > B V.).s.B d.~.+Xg.@Xg.M s.g.'./.^.`.0X~.a., + & O f.V./.!.!.!.k.k.d.Q D Z.S 1 X 8 7 , O O     . $ p , A m.",
"P.A._.[._.~.b.~ n.oXaXdXdX0.*.:XaX( 6 _ d.s.!.`.^.^.Z./.).).{.{.{.{.A.z.T.T.B.( H Q M > : : V B V.).g.M A ~.~.< '.g.M a.s.9Xj.N qXk.: > 5 @.f.^ Q p.s.k.s.s.k.k.j.j.> ^.Q 1 6 S _ ^ 7         3 s . s ) ",
"@X@X|.}._.{.[.C.U *.#.8.W # s L tXXX5 Z !.V.^.k.(.Z.Z.}. X}. X}.@Xg.*.~ m.XXhXXXJ _ B : B N : N !.{.s.d.~.{.V M {.V.> s.V.^.V D `.qX: N U b.  3 K h.j.k.k.s.k.k.k.j.V j.j.1 : 1 O S F 8       O   O p G ",
"@X$X@X|.'.{.{._.U G 2 h - @ C @.rX#XK K V.j.].!.^.Z.Z.(.}.}.).|.g.;.;.;.l.#XvX2XC._ > > s.}.Q N N V.a.d.).{.A A 0X{.d./.'.).D s.`.'.< a._.T.  S Q h.j.k.k.k.k.k.k.k.D p.j.D D D : S J 6 O       + ; h k ",
"0X0X0X'.'.0X+XOXf.! = - y s z.P.tX2Xa.! V.j.`.^.k.^.}.}.}.(.).{.A A *.m.m.tXPXhXQ M : M Q (.Q M B ).).~.'.~.> M 0X9X~.0X0XOXd.!.].].Q C.iXXX7 F _ j.j.j.k.k.qX`.k.k.p.p.j.j.j._ 1 4 S F ;     O = ; k 6 "
};
