/* XPM */
static char *_733_ec32e68b51af30432d64b5e847cf41f704237a32df8e6c640fd076dceb1543db[] = {
/* columns rows colors chars-per-pixel */
"100 75 249 2 ",
"   c black",
".  c #010101",
"X  c #020202",
"o  c gray1",
"O  c #040404",
"+  c gray2",
"@  c #060606",
"#  c #070707",
"$  c gray3",
"%  c #090909",
"&  c gray4",
"*  c #0B0B0B",
"=  c #0C0C0C",
"-  c gray5",
";  c #0E0E0E",
":  c gray6",
">  c #101010",
",  c #111111",
"<  c gray7",
"1  c #131313",
"2  c gray8",
"3  c #151515",
"4  c #161616",
"5  c gray9",
"6  c #181818",
"7  c #191919",
"8  c gray10",
"9  c #1B1B1B",
"0  c gray11",
"q  c #1D1D1D",
"w  c #1E1E1E",
"e  c gray12",
"r  c #202020",
"t  c gray13",
"y  c #222222",
"u  c #232323",
"i  c gray14",
"p  c #252525",
"a  c gray15",
"s  c #272727",
"d  c #282828",
"f  c gray16",
"g  c #2A2A2A",
"h  c gray17",
"j  c #2C2C2C",
"k  c #2D2D2D",
"l  c gray18",
"z  c #2F2F2F",
"x  c gray19",
"c  c #313131",
"v  c #323232",
"b  c gray20",
"n  c #343434",
"m  c #353535",
"M  c gray21",
"N  c #373737",
"B  c gray22",
"V  c #393939",
"C  c #3A3A3A",
"Z  c gray23",
"A  c #3C3C3C",
"S  c gray24",
"D  c #3E3E3E",
"F  c #3F3F3F",
"G  c gray25",
"H  c #414141",
"J  c gray26",
"K  c #434343",
"L  c #444444",
"P  c gray27",
"I  c #464646",
"U  c gray28",
"Y  c #484848",
"T  c #494949",
"R  c gray29",
"E  c #4B4B4B",
"W  c #4C4C4C",
"Q  c gray30",
"!  c #4E4E4E",
"~  c gray31",
"^  c #505050",
"/  c #515151",
"(  c gray32",
")  c #535353",
"_  c gray33",
"`  c #555555",
"'  c #565656",
"]  c gray34",
"[  c #585858",
"{  c gray35",
"}  c #5A5A5A",
"|  c #5B5B5B",
" . c gray36",
".. c #5D5D5D",
"X. c gray37",
"o. c #5F5F5F",
"O. c #606060",
"+. c gray38",
"@. c #626262",
"#. c gray39",
"$. c #646464",
"%. c #656565",
"&. c gray40",
"*. c #676767",
"=. c #686868",
"-. c DimGray",
";. c #6A6A6A",
":. c gray42",
">. c #6C6C6C",
",. c #6D6D6D",
"<. c gray43",
"1. c #6F6F6F",
"2. c gray44",
"3. c #717171",
"4. c #727272",
"5. c gray45",
"6. c #747474",
"7. c gray46",
"8. c #767676",
"9. c #777777",
"0. c gray47",
"q. c #797979",
"w. c gray48",
"e. c #7B7B7B",
"r. c #7C7C7C",
"t. c gray49",
"y. c #7E7E7E",
"u. c gray50",
"i. c #808080",
"p. c #818181",
"a. c gray51",
"s. c #838383",
"d. c #848484",
"f. c gray52",
"g. c #868686",
"h. c gray53",
"j. c #888888",
"k. c #898989",
"l. c gray54",
"z. c #8B8B8B",
"x. c gray55",
"c. c #8D8D8D",
"v. c #8E8E8E",
"b. c gray56",
"n. c #909090",
"m. c gray57",
"M. c #929292",
"N. c #939393",
"B. c gray58",
"V. c #959595",
"C. c gray59",
"Z. c #979797",
"A. c #989898",
"S. c gray60",
"D. c #9A9A9A",
"F. c #9B9B9B",
"G. c gray61",
"H. c #9D9D9D",
"J. c gray62",
"K. c #9F9F9F",
"L. c #A0A0A0",
"P. c gray63",
"I. c #A2A2A2",
"U. c gray64",
"Y. c #A4A4A4",
"T. c #A5A5A5",
"R. c gray65",
"E. c #A7A7A7",
"W. c gray66",
"Q. c #A9A9A9",
"!. c #AAAAAA",
"~. c gray67",
"^. c #ACACAC",
"/. c gray68",
"(. c #AEAEAE",
"). c #AFAFAF",
"_. c gray69",
"`. c #B1B1B1",
"'. c #B2B2B2",
"]. c gray70",
"[. c #B4B4B4",
"{. c gray71",
"}. c #B6B6B6",
"|. c #B7B7B7",
" X c gray72",
".X c #B9B9B9",
"XX c gray73",
"oX c #BBBBBB",
"OX c #BCBCBC",
"+X c gray74",
"@X c gray",
"#X c gray75",
"$X c #C0C0C0",
"%X c #C1C1C1",
"&X c gray76",
"*X c #C3C3C3",
"=X c gray77",
"-X c #C5C5C5",
";X c #C6C6C6",
":X c gray78",
">X c #C8C8C8",
",X c gray79",
"<X c #CACACA",
"1X c #CBCBCB",
"2X c gray80",
"3X c #CDCDCD",
"4X c #CECECE",
"5X c gray81",
"6X c #D0D0D0",
"7X c gray82",
"8X c #D2D2D2",
"9X c LightGray",
"0X c gray83",
"qX c #D5D5D5",
"wX c gray84",
"eX c #D7D7D7",
"rX c #D8D8D8",
"tX c gray85",
"yX c #DADADA",
"uX c gray86",
"iX c gainsboro",
"pX c #DDDDDD",
"aX c gray87",
"sX c #DFDFDF",
"dX c gray88",
"fX c #E1E1E1",
"gX c #E2E2E2",
"hX c gray89",
"jX c #E4E4E4",
"kX c gray90",
"lX c #E6E6E6",
"zX c #E7E7E7",
"xX c gray91",
"cX c #E9E9E9",
"vX c #EAEAEA",
"bX c gray92",
"nX c #ECECEC",
"mX c #EEEEEE",
"MX c gray94",
"NX c gray95",
"BX c #F3F3F3",
"VX c #F4F4F4",
"CX c gray96",
"ZX c #F6F6F6",
"AX c gray97",
"SX c #F8F8F8",
"DX c gray98",
"FX c gray99",
"GX c white",
/* pixels */
"A M B Y K Q >...} R E F G Y S J A S D x A d N s d i y p g g i q q f r u t 0 d e u w k d U W.R. X].H U T W E W I R E ~ ( ( / ) [ ) ( ( ( ) _ ` ' ( ^ Q ! / ` { | } } |  .[ ( ! ~ { $. ._ @.2.3.5.e.8.x./.",
"M l f x d Q T.<X~ C T  .+.U 8 7 i p r 7 6 g d a r e r i f f p r 7 a 9 r p t f e k e t w P !.!..XT.l l g g f g a f h l x k g g h B B B V C A D F Y U P I T Q ( _ _ ]  .@.&.>.7.t.%.2.;...O.-.3.q.6.N.y.J.",
"H M c V f J G.1XY.<.X.3.u.$.K ..c x h y 0 ` J W R R R U J C v k 9 g w f Z Z F m | J c j / (.~._.+XJ Z c j h k g z b M m c j f d h h j l c n M B B B B V A H I T ) } @.>.q.c.R.|.6X<X'.z.>.#.<.e.S.=Xv./.",
"/ Z M T C V -.w.g...] 4.j.%.B ~ V z B w i *.(  .o.O.o.[ E Z z d 9 l t b ` } | ) e.#.R U &.[.^.W.*XY F n l j l h c B A Z N m c k c v n N Z F J L R W ! ^ ) [ X.@.%.<.9.i.M.`.8XzXFXlX;XS.2.;.d.D.t.B.h.Q.",
"/ m j K C B O.=.=.o.=.u.S.0.G Q V f H 3 z X.` ] [ | X.} ^ J M z 6 z e v O.*.$.+.:.O.Q ] 6.{.).W. XD V x j f g s f v V N M B M x m M V A H P T W ` { ..O.#.=.1.6.e.g.n.S./.6XNXGXAXyX*XU.e.0.S._.r.e.~.I.",
"T B b K b m @.,.%.%.X.o.e.:.H [ F v Y t G { o.|  .o.@.@.| ! F M 8 m r x #.-.#.&.X. .W O.e.`.).Y.|.F S M b c c k g m A V V F F V M B C D K Y W ! ! _ } X.O.%.,.6.i.x.A.U.oXsXDXGXMX0X3XXXz.y.D.~.^.U.pXJ.",
"K B n A h x { } X.%.%.<.b.7.F ` m b n g B Q { {  ...X.X.[ T M d 8 V t l $.=.@.:.*.%.Q &.i.`.'.U.}.S C v z k l g d n B v v C Z n V Z S H I E ~ / [ X.&.:.,.4.e.a.p.v.G.Q.&XhXVXVX=X)..X[.s.9.J.{.J.M.).l.",
"A f 6 e q b  ._ .. .] &.c.1.B ' c Z a B v Q } @.O.O.+.#.+._ F z < n 9 s o.%.O.,.:.%.U #.s.}.oX~.%XU H N b c b x b D H B M D F N C Z D J I E ~ ( ` ..%.;.,.4.e.a.l.A.R.].2XcXNXbX;X).OX{.w.<.K.#XD.d.t.N.",
"S C n x c V P ! / Q ^ +.s.:.B E W ,.T d v L ` ( T ( ` } X.Q A S l k v F / o.#.#.+.} Y %.d. X[.Q.-XY K F S M n c n K { m F D G Y D H K K J K U R E A F Y I E { X.*.3.5.p.d.x.K.c.U.Q.'.).7. .A.*Xc.9.3.C.",
") ^ W R E ! ( ` ` ) ' &.j.3.F ( ( r.*.~ ` { | / { ..} } o._ R / +.X. .X.#.%.#.+.X.{ Y &.g.XX}.!.,XE P H D N m v F W X.n Z G ~ +.O.+.@.@.+.o.o.o.@.] } ..] | $.@...@. .O.] ) ..Y j.G.W.Q.e.o.m.oXm.4.*.M.",
"] ` ) ` { { _ ^ ^ ~ ( +.a.<.D / ` t.*.~ / ( [ ` [ | ] ] ..` Q ' #.#.@.@.@.@.@.+...[ T =.k.OX|.~.2X! Y K G B m c K _ *.V C G ' 3.,.>.:.:.:.;.=.&.;.&.;.-.+.&.;.O.;.,.&.=.} / { P e.G.U.P.d.;.m.$XV.:. .v.",
"Q R R ~ ` ' ^ T R W ~ } e.-.Z ! ~ 5...Y T I ^ ` ! ` ` { O.` R ^ ~ ( ' [ } ..+.#.O.| W ;.l.+X}.!.4X^ T L G N n x D ` <.G S D ) 1.-.&.$.$.&.*.&.$.%.%.:.-.@.;.,.O.&.-.&.,.+.] @./ t.U.K.V.s.,.b.$XN.=.} b.",
"( Q E ! _ ' / W ! ( ` ..r.,.H _ W 5.*.....~ ! ^ _ } } X.$.} ^ ' @.#.$.$.@.+.@.$.&.O.~ >.l.oX[.W.4X^ T L F M b z Z ( :.D A F ` 4.<.:.-.-.;.:.>.>.-.&.:.:.%.>.4.-.$.*.#.:. .! ] T 9.K.S.z.q.#.y.U.l.=.O.M.",
"| ' / ^ ( _ ) ^ / ] { X.r.1.L ] { 9.%. .o.~ / ] o.+.| } O.{ ) ..1.<.>.;.-.*.&.%.>.%./ >.k.oX{.Q.4X^ T L F N n x H / #.M V J | 0.&.-.>.,.:.;.:.,.2.#.#.%.X.+.:.>.<.2.,.8.%.)  .^ 2.Z.D.v.6...1.u.y.-.=.N.",
"' ) ^ ! ! ~ / ( ^ [ } | 0.>.K ` | 3.} _  ./ [ $.+.#... .O.[ ^ { | } } o.&.:.>.;.<.&./ ;.j.oX|./.5X/ R P H V M v L ^ o.n A K _ -.R ' %.>.:.=.-.:.<.` ~ ' ~ ! X.:.*.=.*.5.#.^ } / 3.n.S.n.>.{ <.>.5.=.;.b.",
"W W Q Q W ! ( ` )  .....0.,.L ' W =.o.=.9.&.@.*.X.%.%.=.>...! ( Q E ! [ &.2.4.2.<.%.^ -.h.OXXX`.6X( W U K Z V m K ~ +.V H J P ~ m R #.4.5.2.3.5.;.T H W I L { 1.=.-.*.4.O.E _ E 7.k.N.h. .( 3.=.<.*.-.z.",
") ^ { >.4.&.{ _ ( '  .X.6.1.^  .R h &.a.jX,.:.#.5. .,.#.=.[ ( J 7 P H Z $.%.t.1.;.&.E 4.0.#X X_.0X$.Y ^ D D A x G ' ) F S L Y ~ V J ,.q.4.8.<.2.,.^ N  .R V ,.o.,.,.,.=.} W T ! ,.n.x.y.-. .t.S.Q.d.3.z.",
"/ ~ { >.5.=.| ' ] } o.o.5.<.Q { Y n | 3.E.;.<.c.1.| <.:.5.o.' G w W E ~ 1.,.9.,.r.5.E =.w.%X{.~.,X*.^ / N M C V S ' ` H S P Q ] L R 3.w.5.0.4.7.0.[ A [ H c <.4.:.=.$. .~ K L W @.d.l.z.9.#.x.OX~.3.+.v.",
"( ^ } >.4.=. .} | X.@.O.5.:.T ` ^ C I ^ O.:.-.P.n.7.5.*.:.' ' G r U H W $.>.5.q.5.e.{ >.u.@X|..XwX1.R U A K S x V ` ] L F P ! } F L :.6.1.9.5.9.3.| ~ 1.` N %.3.4.<.*...! K P ! #.t.f.v.q.X.c.<XG.^ T d.",
"_ ( | :.2.%. .|  .o.#.O.4.:.Y ) @.J P Z H <...h.u.;.&.@.-.` O.R v ( ~ [ =.2.;.7.%.r.&.#.X.i.u.v.&X1./ T G U A z V ) ' P J I T ~ J Y 3.t.w.i.0.0.8.+.{ 6.X.G o.2.=.*.&.+.) I L R &.t.y.f.8.+.j. XG.(  .N.",
"' ( [ %.=.X.[ } } ..+.o.4.;.Y _ >._ >.T E -.| ;.&.$.;.2.3.W ` M 4 M I Q :.9.:.5.5.3.^ B 0 t w d $.Q  ._ C M m S Z ) ) L L U K J N D ;.q.9.r.3.<.e.' M V z d Q >.} o.&.%.' H M m X.e.e.y.w.,.i.b.N.` 7.H.",
"/ W ~ { | _ ) { [ } o...2.-.U )  .o.x.+.' | %.*.>.3.1.4.<.! 4.@.T ( [ m O.3.7.w.i.W t >   . O   : 2 C J Z S n N Z ) ` P L U P U n V #.6.8.p.w.w.q.[ m h k M / 1.1.6.q.5.| C u 9 ] q.w.r.9.&.:.;.c.R 7.A.",
"U H J E Q R ! ] ] } X. .<.*.L ^ C E <.] P ! ,.-.@.;.+.%.:.=.$X6X0X&X]._ t.p.j.p.q.d & < O % 7 &     > 0 b T C c B ' { I H U ( o.#.X.8.0.3.e.9.w.;.@.[ / | $.&.6.<.3.6.:.( c 9 2 ] 6.8.w.2.| 2.h.W.U 1.F.",
"D B B G L K E ] [ } X.| ,.$.J Q w j m B h Y 1.#.;.8.;.;.;.=.2XjXgX0XyX6.(.~.(.C.5.0 1 p #   ,   % O ; & 9 C A K M [ X.Y D Y X.9.j.6.8.o.I P A S Z L Y H ! { / [ G L R T Z s 0 0 ' >.<.w.2.@.V.7X}.N ' v.",
"z h S m H k S K D G.4X0X]./.5.B B e.9.4.8._ ^ ~ Y R Q ( [ 0.$XgXiXfX.XT.#X:X_.`.%.* 4 c h v s e : ; X @ u M B Z C (  .R C P O.6.v.C.e.F b v I q a A H D Y ! T Y ^ Z P ' ~ T N 1 ^ -.<.5.:.%.t.a.*.A l s.",
"l l c p d p j g b OXnXVXnXAX.X| i.#X#X@X+XL.>.` ] } | { | r.'.-X$XR.x.G.#X#X_.|.k p 6.W.A.r...{ S J m a p a p d V Q { / Y U J V i f r g _ Z L R I Y H G L S A R T W X.#./ P N 0 E $.;.2.$.] &.&.*.( Y k.",
"5 a s g u d 4 @ 7 $XfXnXnXcX{.] r.|.+X%X+X|.' b V N x j J m.9XbXqX Xn.;.1.t.:.C . n v.`.F.9. .%.X.| _ _ o...S 8 F ~ _ T P W W K G J V ~ q.S j S D M c A K m M ^ ( o.-.#.[ / J k T +.=.3.$.~ ' / @.#.X.c.",
"q r > 6 & w 1 4 R xXvXZXzX&XL.&.-.P.E.E.H._.H a : 5 9 q c a.S.N.Y.A.b.&.,.M.x.N 4 &.U.U.V.u.&.$.} ` [ >.k.N.=.f Z ) } Y S E ..#.#.:.;.O.X.v m g n M A ! { W Y | o.=.o.] X./ k 3 U | @.<.#.Q / E {  .} l.",
"9 8 ; y 3 w , 7 6.DXjXlXeX].B.X.4./._.W.C.Q.L n g j g s m c.l.w.t.%.t.7.w.7.>.y , q.Q.F.m.a.%.! _ ] $.3.y.v.6.V v ^ o.^ L T Y D s j ` ) B U S.c.z.Z.F.K.T.D.b.N.V.d.W g b s 5 h T ] { &...U E Y ( Y I h.",
"R L N S C G m v j.SXfXtXwX7XI.^ <.!.^.W.J.L.( H !.c.#.A k d.2.$.>.O.r.$.6.i.x.I Z j.b.<. .' X.| { _ @.4.s.S.7.p C W / I Y ~ A 0 0 - Q +.B | dXvXpXkXaXwXqX1X%X-X'.E.8.@.=.S l ;.] X.} &...P R Y ^ Z V j.",
"oXQ.j.@.5.b.S.s.8.:X;X$X_.~.2.i 0.~.P.R.{.Y.2.) t.%.Q S M M.2.%.4.2.0.V ~ -.y.b *.>.A 9 # o x E ^ V C R =.n.2.1 D W R S J ( L p g e ` #.F ' 6XfXiXwX1X,X;X'.~.oX>XD.L k D 5 d F.X.+.} *.o.U E R W Z A h.",
"fXnXvX*XjXCXsXB.B.;XyXaX).c.) l x.'.Z.J.@XL.e.` 4.^ b a i b.9.w.p.;.9.{ w.1.0.U Z.,.l k a , m ! Z w > # 3 ^  .r z W [ Y J R G d > u ( ` W :.6XuXdX5X-X4X,XR.D.].@XJ.<.k.Q./ r 4.] { ( @. .L Y I Y G J f.",
"dXjXqXP.aXkXnXD.^.,XnX2X).E.%.t c./.m.c.G.k.2.U -.G k m 7 g.j.C.i.2.[ ' ;.5.0.g.c.6./ z 5 6 M ' Y 7 x = j k :.1 C K ] H J H W v n d U ' p.,XsXvXmXP.yXqXuX,XE.*X[.^.1.Z.fX .h ,. ._ ' o.' H S T Q M C g.",
"R.T.F.j.*X!.!.a.%XrX<X).U.P.5.5 e.H.M.C.F.s.*.C _ A N k 6 3.e.r.&...Q R ) [ ,.b.Q.A.7.^ I } 0.k.O.i w - V H 1.h I Y ' G I L Y s 0 x ) W 4.<XpX1XtXx.J.GXGX&XxX3X6XP.#.L.,X^ v 5.{ / _ .._ G A U W m C g.",
"v.G.j.0.^.C.C.l.,XeXR.B.H.L.a.y 6.n.Z.J.S.d.,.I O.J C s M 1.e.| %.| ^ _ ..| ,.M.oX*X#X'.|.-X+XE.C.+.V k ! ] 8.] / E _ F Y U L 9 e f J b e d y 0 t M I 2XGXT.*XzXhXY.%.~.!.P c &.) ! / { / F Z L T n V g.",
"a.v.w.h.`.F.V.H.|.].B.k.D.K.s.] 8.h.N.Z.M.k.u.:.e...| J } ..s.<.k.8.;.w.x.s.p.V.#X@X|.[.$X<XXXL.'.^.j.u.g.f.l.e.Q Y / S U I K 8 + + t n z s e 7 d 0 ; _ yX,X6.h.OX^.,.D.x.Y l ( W T ! ` ! D C H I v V g.",
"g.a.w.~.oX!.L.P.2._ o./ } o.L 4.3.w.d.g.x.x.s.g.p.t.c.2.*.s u.U.L.N.k.Z.T.D.B.Y.$X{.'.#X<X&X!.C.B.|.E.Y.T.L.g.%.D G ~ A L K P t < 7 0 u N ( Y 4 l q k 6 R D.5.;.9.^.=.$.#.L g H P P W / E D V D J z B f.",
"J.!.S.V.4.`.OX5.l # a 2 2 2 + 5.<.8.0.8.v.v.7.l.f.h.b.r.,.& 4.!.S.G.A.Z.Z.n.A.'.OX|.#X8XeX&XY.N.K. XL.V.G.G.i.! b C ! A J H I s , 6 8 s f c P M l ;.$.M z ,.7.+.%.~.$.M A g e h G K R ~ T D C S F l B f.",
"D.T.B.<.2 c.].b q + 6 > < # $ q.7.w.;...g.p.[ t.u.s.7.3.<.$ $.k.n.H.S.b.v.v.V.W.}.(.L.B.b.n.n.n.^.{.W.H.L.n.i.^ b C ! A K J I a E W / ;.^ g J / J 8XBX=X{ z Q e.f.K.%.V M 5 i u A H T Q Y F Z A A j N f.",
"v.;.7.b.7 ,.A.k % # % > 8 O > *.e.w.{ G 4.>.C >.=.s.7.3.$.  { q.B.J.Z.b.S.H.V.m.`.OX}.J.m.V.B.k.*.t.H.W.P.1.X.v B A ! A P L I y s N V ( ] ~ ( f s _ |.tX+.! 4.g.H.h.%._ R 0 S c C G T Q Y G Z A Z h N f.",
"s.i.( K k ` | K u w e g X t . &.r.V b q r l a c Z $.9.8.{ < L 3.t.l.L.N.n.J.C.Z.S.P.].=X+XY.n.l.k.z.y.V.u.T D n b H U ) W R ' K E | _ ^ o.) m l z b j B N m  .7.O.$...' ~ F B P D L I ) U V K n H ) &.K.",
"9.@.f b &   * = ;   w C d ;   ) X.( #.m 3 +.$.Z g ~ ..5.#.2 I :.0.d.L.G.S.H.m.V.!.G.C.J.K.v.q.<.F.H.E.!.G.W T S h A I ] { o.4.+.;.%.T F ` { U J j g g _ 5.5.7.-.7.r.r.0.-.P x V D J L ) T Z J c s n P h.",
"D D m G.h.A #.y.;.< <.l.6.; . J { 4.K.,.4 M.H.R F | ] e.>.- H O.} #.f.n.B.A.N.Y.`.H.b.v.l.e.,.=.j.t.N.l.V.J F d c D F L C B J g * q r e a w ; * u y d O.x.k.9.` <.2.4.7.%.Z u l Z D H _ ! J Q H X.[ ` c.",
"J F c (.m.9 $.A.q.o 4.A.7.    z W +.I.v.- n.J.I b ~ I 2.#.O P ;.1.>.h.N.V.C.C.`.Y.L.J.A.g.4.1.0.w.6.j.8.6.B C c j A D J B m Z w = < 1 2 9 q 5 < > 6 r R =.-.>.X.o.` Q ' ' A x K V Z F ( W U O.+.o.^ P t.",
"l n z `.S.8 q.[.t.$ 7.!.2.< ; M G / A.C.% v.F.P N [ [ 7.$.- Y ,.&.@.i.V.J.P.I.@XU.K.G.N.u.>.1.t.w.g.c.;.H f z H g D L R L K P u 6 o   9 P ` m # O > < h S T =.2.#.^ S P ) R U } V Z S W H S $.5.U.M.s.].",
"v Z J |.H.1 *.A.8.& 3.W.X.-   8 D X.J.l.$ b.A.K p U ] o.' 0 F [ %.%.j.P.(.).T.[.@XW.m.a.7.-.;.5.e.i.6.P i b k x k H K L C N m ; * X 9 _ k.D.3.b ; < # 3 p b ( ] [ Y v c G D V K A C V I M j / @.o.| #.Q.",
"U B Z F.x.4 7.|.3.+ 2.T.-.4 * g n | B.9.> h.N.{ { >.s.9.l.s.N.J.L.G.'..XXX`.B.M.7X}.Z.i.:...O.>.y.j.l.F z K F l p C A D C G L w #   6 L *.a.q.^ 3 7 & , 6 e M M A B p 8 u s a k Z M n P M i C H P S L x.",
"H l H Y.C.3 ..S.u.# 3.Z.&.o   u V | V.h.Z H.'.L.Y.J.I.7.x.G.Z.B.Z.m.P.T.!.!.m.c.,XOXE.j.@.R ) -.>.F.,X( g r V B j S C N x N A 4 -   1 G o.,.! , = 8 1 3 1 4 c N c N s 3 9 d c A B c c Y D a z g b p a 3.",
"Y T l h.s.t _ f.9.: ) V.X.5   i A t b $.G.K._.f.n.v.f.w.8.w.y.t.m.F.Y.W.~.R.n.9.%X4X).P.X.x H 0.}.+X=Xe.b z f A i V N v k B D 2 - % @ : y z g 0 & - > > , 7 s c x g p u y i j N v j z A D b d a p 0 j 0.",
"k S 5 z g X d n b   8 a O X o t b w O _ Q.P.u.t.p.p.t.9.0.y.p.u.j.V.G.G.I.U.x.<.:XeX.XD.[ m &.).#X*XoX7.-.U z y z M x m v n C 0 # # @ @ - < ; @ 5 7 7 3 > : 3 9 q 9 q r t r i j V c x V C l p i t 6 f 9.",
"i n 1       ; $ X   #     = , y m r * 6.E.Z.:.5.7.8.6.4.9.u.i.r.y.v.m.x.V.L.k.#. XT.>.J i & f R +X6X^.*.U.e.@.D s d f F G B V w $ : 1 , > 2 4 2 > 3 9 w r p j b G D G I T E ( | F m c N m g t t 0 3 a 7.",
"8 7 , O % * o = < & 9 7 0 e 4 z b l | ^.n.r.t.#.7.5.1.>.5.e.r.9.0.k.l.i.x.K.l.o.g.<.V u x a h y D.eXG.' Q.Y.D.r.H F n Z B N A r 7 y s a a h x c x b m m m B D J I D N b v m G W F n c N m d w 0 9 1 p 5.",
"b x V n V B d Z j p i y s r 8 N y ` K.^.j.:.t./ 0.4.=.%.<.w.r.9.0.h.g.r.k.J.x.$.m R m f a t h d { ;XN.) k.Q.R.B.s.t.{ A k B U s i d f d h c b x t t r e y d c N _ R F N x k b S V c c V N d 9 6 q 2 p 4.",
"w j z w t g t s i z j y s g d k d x.Q.a.Z.4.#.~ 5.:.+.O.,.t.u.q.q.f.d.t.k.F.v.<.D =.Q F y c C H v L.M.X.8.Y.P.V.B.G.a.#.! ) { z 3 5 5 8 u k z h e e e u j B L E M b b m v l x M M z x B N d 8 4 w 3 p 3.",
"i M j t a h k h y z x x z v m h { Q.M.4.m.5.~ ) >.$. .X.<.y.y.8.w.p.p.y.k.V.x.9.J $.g h 4 _ } o.@.c.Z.O.5.Z.K.B.d.N.v.g.4.=.$.D $ = ; , 8 a h f 7 5 4 5 9 y d h m M A K I P Y ~ C x z m b i 6 3 0 1 u 1.",
"f l w k V h c M V j p c h i M C z.Y.y.p.3.@.E / -.@.| o.1.t.w.<.q.t.y.u.j.b.k.e.( 5.a h > &.,.q.}.B.H.) :.i.Z.x.x.v.d.a.,...$.( : 1 3 < 1 7 q q w t s v D R ) [ E U P P L J Y ^ D b l v z t 5 4 8 < y <.",
"j d p a h l l j g a M d p z A 8.K.H.y.:.#./ T P :.^ ~ E <.-.7.<.5.0.0.t.9.g.V.,. . .t 0 8 D G.c.S.XXS.#.%.4.8.s.a.s.c.v.7.X.4.D.n.W 5 D M C Z J v A V M S Z n B V N m n m N C Z D v z m x r 6 9 6 3 e =.",
"u a f g g h l c l h x u C %.r.E.J.A.q.#.[ U J U +.E E W <.,.0.4.4.9.9.r.9.f.B.;.) ^ t 3 < x d.S.V._.E.6.%.3.1.q.6.4.r.d.8.%.6.B.].S.] y p g j i j f a x D D G ! ! W T P K K K L A v l b z r 5 8 5 3 e =.",
"j c m M m B G I ~ S f r ) v.A.L.B.c.0.@._ J C Y { Y R ! :.<.8.3.4.8.6.q.7.d.n.$.U Z r ; * e o.I.C.I. Xj.$.2.-.,.;.%.,.r.e.2.w.m.G.Q.r.r n V H S Z l l S I J P ) R Y L G D A A A C c k c j e 5 5 5 2 w =.",
"Q W Q / ] | | } ` Z t x 4.L.B.p.5.,.-. .) L C ) ` E E ( &.,.2.>.4.5.2.8.6.a.z...A a q * - 6 A D.K.S.OXN.@.1.-.%.#...#.3.5.,.8.l.Z.S.x.W Z l h x c f z C N v n N M m b v v b n n N x k l g w 4 3 4 1 w *.",
"1.:.:.5.r.8.O.W u u f ] c.D.m.l.X.^ ' W Y H C @.~ Q R ` O.1.<.>.4.3.>.5.4.i.g.` v 6 0 > 3 9 d u.Q.A.[.C.@.>.1.#. .[ | #.o.} *.r.J.g.z.,.s c z z l d c n f x Z n n n n m M N B V m x k j s w 4 < 2 < q &.",
"q.q.r.a.i.;.I f * x Q 9.d.1.7.f.0.} { I F C x #.Y Q Y ' | 4.3.4.3.1.=.2.2.y.a.! g 2 q 6 7 w i  .T.H.E.D.:.%.8.%...| ..X.' / o.5.C.q.j.2.j 5.f.w.E v v M g v H N M M M M M M M M n c l h a e 5 , 1 , 0 &.",
"1.7.9.<.{ D a 8 c X.-.8.;.Q } $.u.{ ..R L S g O.Y / T [ ' 5.2.5.3.,.%.,.1.r.y.Y u 5 y e 3 q g S N.Y.L.Y.0.| w.*.X...o.O.} ` X.,.N.e.n.-._ H.~.K.;.x h I S v n f M M M M m n n b b v z g a r 6 , 1 > 9 %.",
"$.>.;./ j 4 5 y } e.-.$.O._ +.[ | V W Y W T c &.Q ] W } ( 2.>.2.3.>.$.>.<.r.r.P w 9 p u : 7 x j a.Q.J./.s.` r.*.{ ] { ..| ' | $.8.o.i.| 0.J.F.G.z.Z C 4.4._ U A Z A A S S S S A b b x g a t 7 , < > 9 %.",
"@.$.C 5 3 d > ..d.p.x.J.H.a.&.| [ A g l L v / [ ] ( ~ )  .&.>.<.=.,.$.;.3.q.5.J , 0 y w 7 0 y a 5.L.T.Y.G.[ 4.>.o.} [ { [ ` ' } #.Y %.9...S.G.C.] X.a.t.d.c.X.T S A C C Z C N n C v j h s q 3 1 1 : 6 #.",
"! g e 4 e - / n.(.P.S.Z.k.2.X.| ] J c j M r L ( ] ( ^ ) ..&.:.>.=.,.$.;.2.9.3.F > 9 t q 7 9 t i #.G.I.P.K...<.2.O. .}  .} ` _ ] { _ 5.y.] { { } n +.0.q.r.a.<.K b v b m V Z C V V c j j d w 4 2 1 ; 6 @.",
"b : > t 5 2 l.E.I.N.f.e.,.| ) ' ] W F x z 6 K ' ' ( ^ ` X.&.-.-.%.:.#.-.1.7.<.A : 7 e 9 6 8 e r W Z.K.H.U.&.*.6.$.o. . .[ / ~ / R ) :.e.$.k j v c 9.r.0.9.y.k.) Z V N B V C B M B v l l f w 4 2 1 ; 5 O.",
"4 0 1 p - _ G.S.y.5.:.;.%.} / ~ ^ Q L v z 9 Y } _ ( ( ] o.&.*.&.O.*.O.=.1.8.<.Z ; 5 q 8 5 7 0 q N M.J.G.T.3.o.7.:.$.X.} _ W Y R R / ] 4.i.z h k j =.w.q.8.0.6.P S Z B B V V N m N b c x f 0 1 , 1 ; 3 X.",
"= 9 6 1 g z.N.M.a.0.2.2.2.*.[ ! T R H k h 0 I / ) ( ) { +.%.$.@.| #.o.=.2.9.<.Z ; 4 9 7 5 7 9 7 g l.H.H.U.r.| 1.4.-.+. ._ R U T W ] } 9.v.C k x l T e.d.f.y.^ V b c c b N Z A A m b v c f 8 > ; 1 - 2  .",
"r - 0 ; #.c.p.x.l.i.6.<.:.%.| ( Q ^ P g d 9 P E ( / _ } @.%.@.X.} #.o.-.3.9.<.C ; 4 9 7 6 8 8 5 y r.S.J.F.f.| %.<.*.#.O.[ ! T T C ^ @.e.d.T c B l u E ( ] ' k b D Z N M B V V B z z c c d 7 > ; 2 - < { ",
"p - 0 Z l.l.p.u.p.y.6.=...] _ ) ^ ' Y p e 5 I ~ / / `  .#.%.O.|  .&.@.>.4.8.:.M : 5 9 8 7 9 8 4 8 :.M.H.m.x.X. .} {  .O. .^ I K N P [ :.1.*.H K [ Y T ~ ) / ~ | E P S M v l g s a d k x d 9 1 < 2 = , [ ",
"= 2 3 6.N.H.B.q.p.f.a.2.| ~ Q ~ Y / J 8 , - L ( ^ / ` ..#.%.o.} O.-.$.,.4.7.=.v > 5 9 8 8 0 8 4 3 o.x.G.l.b.+.] P T _ X. .! H Z ^ P Y ' o.a.Q J C K c K K x H V D B x g a u r q e y f l d 0 3 4 2 = , ] ",
"e @ R v.Z.S.D.L.B.w.1.2.>.&.| Y I E C 3 @ q F ^ ~ ^ ( ..$.` ~ O.o.=.#.:.2.5.*.c , 5 9 6 4 7 7 4 7 Q C.k.c.d.<.( ` G F R T P K Z W / U @.>.7.i.J V V V C C C Z Z v v k i t p a u i a d d p e 5 1 ; : 1 ! ",
", i e.T.b.u.2.%.R D K / ' ..#...Z Y F w : i K ) ! ~ ^ | +.( W  .O.-.#.:.2.4.&.x , 5 9 6 4 7 7 4 5 R M.d.k.i.:.^ } J S P L K P G R ! K o.<.w.d.L B B N N N N N N m m z s i s d a u p s s i w 5 < : : < E ",
", L A.C.+.( E L / Y W Q G C D A p A D r > u H ^ ! ! ! [ X.! Y [ @.;.%.>.2.3.$.l , 5 9 6 4 7 7 4 3 U c.y.a.e.=.! o.L Z H G J U L Y R D  .2.i.k.L B N m n b b b b B B v g s g h f y i a p y 0 3 , > : > U "
};
