/* XPM */
static char *f6392ca96f2d4d7293e7c579b77a3093tTxKBWH38tWmeEdU[] = {
/* columns rows colors chars-per-pixel */
"64 64 249 2 ",
"   c #1F4D9B",
".  c #37588B",
"X  c #214E9D",
"o  c #244E93",
"O  c #23519E",
"+  c #2B549A",
"@  c #2B5C9C",
"#  c #295696",
"$  c #335D9B",
"%  c #375A97",
"&  c #2A4F8B",
"*  c #2E619D",
"=  c #39649B",
"-  c #214DA0",
";  c #2554A2",
":  c #2856A4",
">  c #265AA4",
",  c #2A5AA5",
"<  c #2456A9",
"1  c #265BAA",
"2  c #2C5CAA",
"3  c #2D57AC",
"4  c #335BA5",
"5  c #325DAC",
"6  c #395CA6",
"7  c #2D5DB2",
"8  c #2D5CB9",
"9  c #335DB3",
"0  c #305DB8",
"q  c #2C61A5",
"w  c #2C61AD",
"e  c #2661A7",
"r  c #3463A4",
"t  c #3B63A3",
"y  c #3263AC",
"u  c #3964AC",
"i  c #3C6BAC",
"p  c #376BA9",
"a  c #3D72AF",
"s  c #2D63B3",
"d  c #2E6ABC",
"f  c #2B68B6",
"g  c #3264B2",
"h  c #346BB4",
"j  c #3B6CB4",
"k  c #346CBC",
"l  c #3A6EBA",
"z  c #3963B6",
"x  c #3E73B5",
"c  c #3C74BC",
"v  c #3E7ABD",
"b  c #3472B7",
"n  c #1E4EA0",
"m  c #405D93",
"M  c #526B8D",
"N  c #596D8D",
"B  c #5D728E",
"V  c #446B9E",
"C  c #486799",
"Z  c #546D95",
"A  c #5B7393",
"S  c #597598",
"D  c #4D6A90",
"F  c #637693",
"G  c #6A7B96",
"H  c #647B9A",
"J  c #6B7D9A",
"K  c #637896",
"L  c #63738F",
"P  c #446BA3",
"I  c #466AAB",
"U  c #4973AA",
"Y  c #5877A7",
"T  c #476BB4",
"R  c #4373B5",
"E  c #4276BB",
"W  c #447BBC",
"Q  c #4A79B6",
"!  c #5879B6",
"~  c #516CAB",
"^  c #647DAA",
"/  c #697EB5",
"(  c #336EC1",
")  c #3B74C1",
"_  c #3D7BC1",
"`  c #3775C5",
"'  c #2F6DC2",
"]  c #427CC3",
"[  c #457BC5",
"{  c #6E819C",
"}  c #72839D",
"|  c #7B8A9C",
" . c #5D81AE",
".. c #4981BD",
"X. c #5885B7",
"o. c #5992BE",
"O. c #4D80AF",
"+. c #6D84A1",
"@. c #6484AC",
"#. c #6B88A9",
"$. c #7486A2",
"%. c #758AA4",
"&. c #7C8BA4",
"*. c #738CAB",
"=. c #7B8EA9",
"-. c #7B87A1",
";. c #7C91A9",
":. c #638BBB",
">. c #6789B7",
",. c #738CB6",
"<. c #6593BD",
"1. c #6D95BA",
"2. c #7B95B5",
"3. c #7796BA",
"4. c #4583C4",
"5. c #4B85C4",
"6. c #4C8BC5",
"7. c #4A89C9",
"8. c #538CC5",
"9. c #5289CA",
"0. c #5593CA",
"q. c #5A95CD",
"w. c #5795C8",
"e. c #5B98D3",
"r. c #4E91C8",
"t. c #688AC6",
"y. c #6698C3",
"u. c #7699C7",
"i. c #659AD5",
"p. c #7192C8",
"a. c #78A4CB",
"s. c #78A7D4",
"d. c #75ACE7",
"f. c #848E9D",
"g. c #828EA6",
"h. c #828FA9",
"j. c #8392A6",
"k. c #8494AB",
"l. c #8A96AC",
"z. c #8C9AAD",
"x. c #8996A7",
"c. c #929BAB",
"v. c #849BB3",
"b. c #8D9CB2",
"n. c #889AB8",
"m. c #929EB3",
"M. c #8CA2BB",
"N. c #8BA1B7",
"B. c #94A2B4",
"V. c #9AA5B4",
"C. c #94A4BA",
"Z. c #9AA6BA",
"A. c #95A9BD",
"S. c #9CAABC",
"D. c #9DA8B6",
"F. c #98A2AE",
"G. c #A2AAB6",
"H. c #A3ACBB",
"J. c #A7ABB8",
"K. c #A5B0BE",
"L. c #ABB2BC",
"P. c #B4B7BD",
"I. c #859BC4",
"U. c #8CA2C4",
"Y. c #8CABCB",
"T. c #86A4C9",
"R. c #94A9C3",
"E. c #9CACC2",
"W. c #95ACCB",
"Q. c #94A9C9",
"!. c #9BB3CD",
"~. c #9EB3C8",
"^. c #8AAAD5",
"/. c #94ADD2",
"(. c #8BB3D9",
"). c #9AB6D8",
"_. c #A3AEC2",
"`. c #A1AFCC",
"'. c #A4B2C3",
"]. c #ACB5C3",
"[. c #ADB9C6",
"{. c #A3B4CB",
"}. c #ABB6CA",
"|. c #ACBACC",
" X c #A7B9CB",
".X c #B2B6C1",
"XX c #B3BAC5",
"oX c #BBBDC5",
"OX c #B4BDCB",
"+X c #B9BDCB",
"@X c #B1B6C9",
"#X c #ACBDD3",
"$X c #A4B9D6",
"%X c #B2BDD3",
"&X c #BABFD5",
"*X c #9ABDE4",
"=X c #88B9E8",
"-X c #A5BCE6",
";X c #C0BDD0",
":X c #BBC2CC",
">X c #B7C2CB",
",X c #ACC3DA",
"<X c #B5C3D3",
"1X c #BBC4D3",
"2X c #BDC9D5",
"3X c #B4C4DB",
"4X c #BCC5DA",
"5X c #BCCBDC",
"6X c #B7C9DD",
"7X c #9AC2E5",
"8X c #A8C5E7",
"9X c #B6CBE5",
"0X c #BDD1E3",
"qX c #BBD2EB",
"wX c #B5D1EA",
"eX c #AACDF3",
"rX c #BCD7F9",
"tX c #AED3F9",
"yX c #9EC1DF",
"uX c #C2C5CC",
"iX c #C6C8CD",
"pX c #C2C6D3",
"aX c #C3CAD4",
"sX c #CACDD3",
"dX c #C3CDDB",
"fX c #CACEDA",
"gX c #C5D1DD",
"hX c #CCD2DC",
"jX c #CDD1D4",
"kX c #D3D2D4",
"lX c #D2D5DC",
"zX c #D9D8DB",
"xX c #D2CED7",
"cX c #C5CEE2",
"vX c #C4D2E2",
"bX c #CCD4E3",
"nX c #C3D4EB",
"mX c #CBD8E9",
"MX c #D2D6E3",
"NX c #D4DAE4",
"BX c #D4DBEC",
"VX c #DADCE6",
"CX c #C6DAF6",
"ZX c #D4DEF7",
"AX c #DAE1EA",
"SX c #C9E3FD",
"DX c #D9E6FA",
"FX c #CEF0FF",
"GX c #E5E8F6",
/* pixels */
"[.m.C.{.Q.Q.`.I.,.n.I.Q.U.U.$XnX5XcXfX1X.XJ.J.G.G.J.J.P.xXzXiX;XpX&X`.$X-Xp.% o o   O   n n - - X   X X X X X X   X             ",
"C.R.{.Q.I.Q.T./ m C C Z C Z ,.Q.nXcX5X3X@X_.H.J.J.@XoXiXMXVXxX;X`.@X}.`.I./ % o o       n n - X X X X   X X   X X   X           ",
",.I.I.I.t.t./ ! m m 6 % % m ~ p.9X8X,X9X8X$X`.`.%X4X;X&XcXBXcX&XE.I.U.I.^ m % % o O O n O n   X X X X X X O X O X X X   X       ",
"/ / / / / ~ T T 6 3 6 3 + 4 6 T ! Y ,.^.$X).).-X).-XQ.n.`.%X$XU.n.^ H ~ m % 6 : X n O O O ; ; X ; X - X X O O - O X O X X       ",
"~ ~ C T ~ u 4 z 5 3 1 1 3 3 3 4 % & = Y >.! / :.p.p.Y Y p.I.,.Y ^ C m % & + 4 + O n O n X X + X X X O X ; X X X X X O O X X X   ",
"m m P C 6 6 6 : g 2 < e 9 9 5 6 u * % $ # # # $ I C % C ! t.P . m % % % + ; ; - n < O ; ; ; - X X ; O X ; O ; - ; ; O X O O X O ",
"S >.I.p.P $ = @ @ @ O # ; @ , @ , , , @ , , r I + + + 4 T i # o o % 4 4 , ; - : < n ; ; ; X + ; ; ; X ; O ; ; + O ; O O O O O O ",
"eXeXFXSXu.. $ = @ , q * * @ * * O 2 g 2 , , : : 2 : 4 u u , + 4 ; 3 O X 3 3 n ; n n ; ; O ; O O ; O ; O ; X X ; ; O ; O O O O X ",
"Y.-XeX^.Y C V $ $ * @ @ # * * $ 2 2 2 2 2 , 2 2 4 : : , , : : , 3 ; < < < < < < < < < ; > : O O : ; ; ; ; : : ; ; ; + ; ; ; ; X ",
"3.u.u.>.= # % + r r r 4 q * $ @ 2 2 2 2 2 2 2 2 2 2 5 : , 4 : : ; 3 < 3 < < < < < n ; < O : @ : ; ; ; ; ; ; ; ; ; ; ; ; - ; ; ; ",
":.! ! ~ 6 6 z 6 5 5 5 5 5 4 @ , 2 y 5 2 3 2 , , 2 4 2 , , : , , < 3 < < < < < < < > > < O > > : : : + ; : : : ; ; : ; ; : - ; + ",
"I 6 6 I 5 4 9 3 9 3 3 9 9 5 5 4 5 5 r 2 4 2 5 2 2 2 , 2 2 4 2 2 < < < 3 < < > > > ; > > : > : : : : : : : : : : : ; ; : ; ; ; ; ",
"6 + : 9 9 3 7 7 0 8 9 0 9 9 6 5 g w y 5 r 2 2 1 2 2 2 2 1 1 1 2 1 2 > > , > > , < > > < , < , : ; : : : : : : : : : : : : ; : ; ",
"I 5 y T 5 s z k z z g 2 5 9 5 4 p g y w 2 w w w 2 2 2 2 1 e e 1 , , e , , , , , > > , > , > > < : : : : : : : : : : : : : : ; ; ",
"p * q q e e s w 7 f y , r j I y p g y w w w 1 w 2 s w e s 1 7 e q q , , , , , , > , > , > > 1 1 2 : : 3 < , , < 3 , : : : : : : ",
"= * r p q q p q q h p , p Q ..Q h g g y w w s e s e w w 1 s e e q , q , , q , @ @ > , > 1 > 1 2 : + : : 4 : : 4 : : : : : : : : ",
"= = I % Q * p * i r W @ 2 i.i.e.[ ( g h w 1 s g 2 s 7 7 s 1 s e e q q 2 q 2 , q q 1 2 1 2 1 1 > @ @ @ @ , , @ , , , 1 : , < : < ",
".  .=Xa.u.V V V # # = p Q [ Q W 9.l w s w s s 2 7 s w w 7 s w w e , q q q 1 e 1 2 1 q 1 1 2 < , , @ @ , @ : > , , < , , , > > > ",
"D Y.FXrXCXu.D . / / m P ! ~ P i T p y u 5 y g 2 7 w g w w w w w w w q 2 1 q 2 2 2 2 2 2 2 2 2 , , 2 2 : 2 2 1 1 , 1 , , > > @ > ",
"$XSXDXwXCX/.n.Y.-XeX,.~ I.u.~ C 6 4 p i , 5 u y 5 y 5 w w w w w y w w w w w w 2 2 w 2 3 2 2 2 2 7 3 7 7 7 2 2 1 2 1 1 q e @ > @ ",
"ZXGXZX@X9X#X&XDXZXZX9X`.nX-XZ ^ >.T I u $ 4 u u y w y y g q w e w w w y 2 w y 2 y y 2 5 2 2 2 5 8 8 8 8 8 7 7 7 w 2 e 1 e > e @ ",
"VXxX@X@XMXmXbXDXZXnXZX9XZX&XL U.*Xp.U t t t u 4 y w g s g f w p s s s f s s s 9 s 5 g 2 5 5 y 8 8 8 8 8 8 8 7 s s w e e e e e e ",
"VX+Xc.J.bXBXmXZXbX4X&X&XBX`.g.`.-Xi.I I I u y y g g g w f w e f f 8 s f 8 s s s 8 g s 9 g 7 2 s 8 0 0 0 s 7 5 2 2 s w w e e e e ",
";X@X_.bXBXbXpXcX&XcX_.%XnX&Xm.n.u.T I ! E y g l w f f f f f f f d f d f f f s s g s s s 2 g y y 5 5 5 5 2 y w y w e s e s e e e ",
"%XZ.`.&X0X%X#X4XCX9X%X%X9XqX!.K ! T i j l h d d ( d s s b b d f d ' f f f f s d l g w s 2 y u 2 r % = r = a * & y r 5 2 y g 8 s ",
"/.Q.U.U.I.n./.rX!.$X$X-XCXrXQ.Y ! T u u z k d d 8 ' ` ' f e e w s f s f k k g g q y i i i p t t P U Y V . . = O.P $ + 2 5 5 3 3 ",
"1.p.T.^.I.@.@.1.Y @.^ 1.*X8XT.X.Q j h k z ( ' ' d f f f h p p h c W l p h w * q 4 p = = Q Q P P I.Y.!.Y.1.a.7XtX^.t.P t 9 T z z ",
"p.t./ t.X.U V P U Y V U s.(.u.y.Q ] l ) ( k ' ' ` d f p i a i = % r @ $ = U X.u.^.s. . .^.).Y./.CXnXCXqX,X0XSXqX8X(.,.Y ~ ! ~ t ",
"i.Q a p i U U U U X.! X.s.i.O.U E l l l ( ( ' ( k c E P = $ V Y :. .V C >.^.7XrXrXrX).!.qXZXnXDXDXmXvXcXgX0X0X,X6XwX8X(.^.^.p.! ",
"c c E E x a x a x ..Q 8.i.8.p r R l z ( ) ) [ [ j p t C Y ,./.8XSX8X2.2.).qXnXqX0XmX0X2XvXvXvXGXBXcXdXdX2XjXgX2X~.<X<XR.U.Q.I.H ",
"] ] ] c h h c E W ....5.X.W R ..E E l E ] ] [ 9.E T Y >.Y.9XZXDXCX9XR.E.3XmXcX5XaXhXlXkXjXjXxXzXVXMXfXpXoX>X>XP.>X>XK.S.E.{.`.`.",
"c ) c k v ] W b W c W 5.x p a a l l j R T T Q ! V >.*XrXCXnXcXcX5XcXgXgXmXMXgXhXlXsXsXjXkXzXzXxXxX;X+XoX>XjXjX>X>XP.G.[.4XcXbXCX",
"_ _ _ c ) ) ` [ [ W W R R W W E 4.f ..X.C ^ ).eX$X3X9X5XdXbXMXfXMXNXNXNXAXAXAXlXhXlXlXlXlXhXjXsX1X1X+X+XpXpXpXpXXXXX].L.[.<X2X5X",
"_ _ _ _ _ ) ] _ W E E W W R R b b _ a = Z /.ZXDXBXBXBXBXMXMXzXkXNXNXNXNXNXAXAXNXlXhXhXhXhXhXhXjXaX&X+X+X+X&X+XOX].@X&X2X1X<X<X2X",
"_ _ _ v ] ] [ [ ] E v W W R _ 4.b 6.Q V I.CXZXBXGXDXAXmXhXhXzXNXNXMXhXhXAXAXAXhXhXhXfXhXgXhXhXgXpX;X+X@XOXOX@X}.}.%XpX2X<X%XOX<X",
"_ _ ] ) ] ] ` [ [ v v W W v 7.d.R p U ^.SXDXBXMXmXMXfX5X+XpXsXhXsXaXaXaXgXNXAXhXhXaXpX1X:X:X2XiXpXpX&X&X+X@X@X].@XOX<X@X'.H.'.'.",
"4._ _ 4._ _ 7.[ 4._ ] 4.v W e.7Xy.U 1.rXGXZXBXMXaXpX1XOX].].].XX.XOX:X:X1XaXgXhXfXaX1X:X>XOX>X+X1X1X:X>XOX@X@X].@X@X@X_.V.m.C.Z.",
"..4.4.4.4.[ ` 7.] [ 4.7.W 4.e.d.(.1.$XFXZXfXfXoX+X@X]._._.H.G.J.G.L.].L.[.>X1XpXaX1X:XOX.X.X].XX@XXXXX[.].]._.H.`.}.`._.Z.m.z.z.",
"5.6.....4.4.7._ _ 4.4.4.4.5.e.y.1.W.CXDXBXMXxXoXL.D.Z.D.H.D.H.H.D.G.H.H.H.[.OX>XOXOX}.L.K.K._.H.H.K.].'._.H.D.Z.V.G._.E.m.l.l.h.",
"r.r.6.6.4.7.4.7.7.7.4.] 4.9.q.w.T.qXDXbXiX;XP.P..XG.V.Z._.S.D.G.D.H.D.D.H.].}.L.].].H.H.H.D.D.V.H.K.K.K.H.Z.B.m.m.l.l.n.l.h.g.-.",
"i.0.7.7.9.7.4.4.r.v 4.6.6.O.o.i.*X0XDXAXsXP.P.uXL.]._._.E.Z.V.D.V.V.S.H.'.[.<X5X].D.S.]._.V.Z.].'.K.K.K.S.B.c.z.h.l.h.h.g.g.-.g.",
"q.9.9.0.q.r.7.6.6.4.4.6.o.6.w.a.wXnXmXhX:X>XuXiX].'.E.E.E.B.m.F.V.S.S._._.}.%X<X}.'._.'._.H._.|. X~.A.A.C.z.k.k.g.g.h.h.h.g.-.-.",
"r.8.r.q.e.r.7.r.6.r.o.r.O.O.O.o./.,X6X2X:XoXL.G.].S.A.E.E.S.B.m.B.C.Z.C.Z.S.E.'.Z._.|.#X%X|.3X3X{.A.b.x.x.j.;.&.g.h.l.n.m.l.h.g.",
"q.q.0.0.r.r.r.r.r.r.o.o.O.o.y.a.#.*.;.x.F.L.XXP.'.C.B.Q.~.S.D.m.B.b.m.m.m.b.b.b.k.E.3X5X6X3X%X{.M.k.-.%.%.%.-.-.h.l.m.m.R.m.z.l.",
"w.w.w.w.r.r.r.w.r.o.o.O.o.(.eXtXyXyX,XA.D.H.K.A.S.A.N.M.E.Z.D.c.m.b.n.b.b.l.k.k.m.{.3X3X%X{.B.j.;.+.G J J } -.-.k.l.x.b.l.m.l.l.",
"w.w.w.e.e.w.w.w.r.o.o.a.7XtX8XyXyXyXwXwX6XvX3X>X~.A.N.N.b.m.c.c.z.b.l.l.k.;.&.-.m.E.`.E.B.b.g.J { J F K K H J $.k.;.j.x.m.z.c.l.",
"i.e.w.e.e.w.w.w.w.a.s.7XeX7Xa.#.7XyXY.N.M.,X,X~.E.U.v.v.v.k.x.x.k.k.=.&.&.&.$.} h.h.&.-.&.-.$.} J H A F F F J =.v.k.l.b.C.D.Z.m.",
"s.a.y.o.y.y.w.y.o.a.=X7Xa.1.1.1.1.1.3.3.~.qX6X>XA.N.z.k.h.g.x.x.l.j.&.&.&.&.&.-.J G F G J } } { H S F A F K $.k.l.v.b.C.E.{.`.E.",
"wX6X6X9X,XyXa.1.1.1.y.1.y.y.a.y.a.<.1.yXwX2X>X XF.c.f.f.x.k.z.N.F.z.x.j.h.-.} G G L B B { { { B A Z B F J -.=.h.l.n.b.U.Q.Q.T.2.",
"gXgXgXgXhX0X<X XA.Y.Y.a.a.1.1.o.y.1.a.,X0X,X>XL.P.].>XgXvX<X X~.B.x.| | &.&.J G L B N M A { B A Z A A J } | &.&.v.b.k.*.#.@.@. .",
"uX>X:X2XgX0X2X6XwXwXwX8XyXyX(.Y.3.3.T.).,X,X>XNXVXNXNXNXAX5X|.S.~.B.;.| } { K N N M M M M B A A M A H J { G { { J $.=.*.#.#.Y Y ",
"iXiX2XsXjXgX5X2X2XwX0XwXwXwXwXwXeX,X X!.A.B.L.5XdX:X>X1X2X2X<X|.>XA.v.%.{ J A M M M M D M M M Z S H ^ J G G L G L $.,.,.1.1.X. .",
"iXiXsXsXhXaXiX2X2X2X>X2X2XgXgX0X6X6X<X>X|.'.}.>X[.XX>X1XaX2X>X'.A.M.a.;.*.J H S M Z A S S S S J *.*.+.J F F { { +.+.+.@.>.:.:.X.",
"oX>X:XuXaXiX:X>X2X>X>XP.>X>X2X>XK.L.>X<X5XdXgXgX2XdXpX1X:X>XP.G.A.A.A.A.v.*.#.+.#.*.*.2.2.2.2.2.*.+.J A N B F H H S S Y @.<.X. .",
">X>X>X:X2X2X:X:XP.P.P.P.P.P.>XP.sXsXsX2XfXaXdX5X<X1X>XOX+XpXsXfX>X,X,X X~.R.n.v.Q.W.W.!.!.W.Q.U.%.$.J F L L F K A S @.#.:.<.<.O.",
"K.K.K.[.[.>XOXXX>X>XiXiXoXiXjXkXzXzXzXMXlXbXgX3X<X5XdX2XuXsXhXhX6X0X6X6X0X9X%X#X#X#X#X,X#X{.R.m.b.n.k.=.;.%.%.+.#.2.>.>.@.:.<.<.",
"C.A.~. X X[.|.>X2XjXaXhXhXsXsXjXzXkXiXiXpX>X>X5X5XgXgXgXhXAXNXhX2X<X>X>X<X<X<X<X[.<X].'.].S.m.Z.~.}.3X{.Z.R.n.+.2.2.*.1.1.:.:.X.",
"M.M.A.M.R.E.'.}.[.L.].>X:X:X:X:XjXsXuXP.P.].[.K.[.<XdX5XgXlXhX2X>X>XXXXXL.L.>X>XaX:XL.H.OX+XOX@X4X5XmXnXnXCXnX9X} #.*.#.@.1.3.a.",
"2.v.v.N.n.A.E.{.K.S.K. X&X2X1X:XgXlX2XL.K.>X>X'.[.2XgX2X>X2X>XK.L.[.XXXXL.L.P.:XuXuXXXP.+XpXpXfXBXcXcXvXcXcX0X3XA.W.W.Y.a.Y.).7X",
"%.;.k.n.M.R.{.{.,X,X,X>X<X4X5X2X>X>XK.F.D.[.<X[.<X5X5X>X>X<X>XK.>X>X:X:XP.P.>XuX:XlXlXlXxXfXfXVXbX:X%X1X1X3X4X#XqX0X3X).#XwXwX,X",
";.k.k.N.C.R.'.{.{.#X X~.Z.S.'.~.N.N.N.A.'.|.:XaXOXXXK.B.A. X XA.K.L.L.[.P.P.P.[.:XlXlXlXbXpXfXMXVXpXOX:XOX@X].'.#X<X X{.{.,X#XQ.",
"A.N.z.k.l.N.C.E.C.S.S.b.&.j.k.k.%.%.2.K. X>X>XpXJ.F.f.| | ;.;.%.| | x.F.L.>X>X>XaXsX:X>XpXfXpXpXBXpX+X:X].G.D.V.D.'.'.'.S.E.Z.B.",
"B.c.x.x.x.c.b.B.z.C.S.b.;.k.;.%.{ 1.3.M.A.K.].XXG.c.f.x.;.;.#.{ N.F.A. X>X2XhXNXbXaX@X@XpXcX&X&XoXP.oX:X.XP.XXXX].].L.H.G.V.V.F.",
"f.f.x.c.V.B.c.x.m.D.S.A.B.B.b.;.3.(.W.M.N.'.OXoXXXL.L.<X6X~.Y.R.,X,X X>X,X X>X>XOXOXJ.G.].].G.J.J.L.oXoXJ.G.H.G.@XG.c.F.G.G.G.G."
};
